<?xml version="1.0" encoding="utf-8"?>
<!-- Generator: Adobe Illustrator 25.0.0, SVG Export Plug-In . SVG Version: 6.00 Build 0)  -->
<svg version="1.1" id="Layer_1" xmlns="http://www.w3.org/2000/svg" xmlns:xlink="http://www.w3.org/1999/xlink" x="0px" y="0px"
	 viewBox="0 0 80 80" style="enable-background:new 0 0 80 80;" xml:space="preserve">
<style type="text/css">
	.st0{fill-rule:evenodd;clip-rule:evenodd;fill:url(#Rectangle_1_);}
</style>
<desc>Created with Sketch.</desc>
<g id="Design">
	<g id="cpa-97_design" transform="translate(-180.000000, -991.000000)">
		<g id="_x2705_-art1" transform="translate(0.000000, 724.000000)">
			<g id="content" transform="translate(160.000000, 267.000000)">
				<g id="_x31_">
					<g id="a1-1" transform="translate(20.000000, 0.000000)">
						
							<linearGradient id="Rectangle_1_" gradientUnits="userSpaceOnUse" x1="-518.6599" y1="740.8588" x2="-519.1988" y2="740.0743" gradientTransform="matrix(80 0 0 -80 41554 59277.8281)">
							<stop  offset="0" style="stop-color:#9071EC"/>
							<stop  offset="1" style="stop-color:#354DCF"/>
						</linearGradient>
						<path id="Rectangle" class="st0" d="M6,0h68c3.3,0,6,2.7,6,6v68c0,3.3-2.7,6-6,6H6c-3.3,0-6-2.7-6-6V6C0,2.7,2.7,0,6,0z"/>
						<g id="abdominoplasty" transform="translate(16.666667, 14.666667)">
							<path id="Path" d="M34.6,7.4C34.7,7.4,34.7,7.4,34.6,7.4c0.5,0,0.8-0.3,0.8-0.7c0-0.5,0.1-1,0.1-1.5c0.1-0.4-0.3-0.8-0.7-0.9
								S34.1,4.5,34.1,5C34,5.5,34,6,33.9,6.5C33.9,7,34.2,7.3,34.6,7.4z"/>
							<path id="Path_1_" d="M35.1,3c0.1,0,0.1,0,0.2,0c0.4,0,0.7-0.2,0.8-0.6c0.1-0.5,0.2-1,0.4-1.5c0.1-0.4-0.1-0.8-0.5-1
								c-0.4-0.1-0.8,0.1-1,0.5c-0.1,0.5-0.3,1-0.4,1.6C34.4,2.5,34.7,3,35.1,3z"/>
							<path id="Path_2_" d="M12.2,2.8c-0.4,0.1-0.7,0.5-0.6,0.9c0.1,0.5,0.2,0.9,0.3,1.4c0.1,0.4,0.4,0.6,0.8,0.6c0,0,0.1,0,0.1,0
								c0.4-0.1,0.7-0.5,0.6-0.9c-0.1-0.5-0.2-1-0.3-1.5C13,3,12.6,2.7,12.2,2.8z"/>
							<path id="Path_3_" d="M10.9,1.1c0.1,0.3,0.4,0.5,0.7,0.5c0.1,0,0.2,0,0.2,0c0.4-0.1,0.6-0.6,0.5-1l0,0
								c-0.1-0.4-0.6-0.6-1-0.5C11,0.2,10.7,0.7,10.9,1.1L10.9,1.1z"/>
							<path id="Path_4_" d="M39.4,9.6c0.1,0,0.2,0,0.3-0.1c0.4-0.2,0.6-0.6,0.4-1c-1.2-2.8-1.8-5.3-1.7-7.7c0-0.4-0.3-0.8-0.8-0.8
								c0,0,0,0,0,0c-0.4,0-0.8,0.3-0.8,0.8c-0.1,2.6,0.5,5.3,1.8,8.3C38.8,9.4,39.1,9.6,39.4,9.6z"/>
							<path id="Path_5_" d="M45.3,17.6c-1.1-2.1-2.5-4-3.6-6c-0.2-0.4-0.7-0.5-1.1-0.3c-0.4,0.2-0.5,0.7-0.3,1.1
								c1.1,2,2.5,3.9,3.6,6c1.5,3,2.1,6.8,1.6,10.1c-0.9-0.4-2.1,0-2.6,0.9c-0.2,0.4-0.1,0.8,0.3,1.1c0.4,0.2,0.8,0.1,1.1-0.3
								c0.1-0.2,0.4-0.3,0.7-0.2c0.1,0,0.1,0.1,0.2,0.1c-0.4,1.3-1.2,2.6-2.3,3.8c-0.9,1-2.2,1.7-3.4,2.2c-0.2,0.1-0.5,0.2-0.7,0.3
								c-0.1,0-0.2,0.1-0.3,0.1c0.1-0.4,0.2-0.9,0.3-1.3c0.1-0.4-0.2-0.8-0.6-0.9c-0.4-0.1-0.8,0.2-0.9,0.6c-0.1,0.5-0.2,1-0.3,1.5
								c-0.1,0.3,0,0.6,0.3,0.8c-0.2,0.1-0.4,0.3-0.6,0.5c-2.9-1.5-17.4-9.2-25.1-14.2c0-1.1-0.9-2-1.5-2.6
								c-0.3-0.3-0.7-0.6-0.8-0.9c-0.8-1.3,0-3,1.1-3.9c0.6-0.4,0.8-0.9,0.8-1.5c0-1.1-1-1.9-1.8-2.5c-0.3-0.2-0.5-0.4-0.6-0.6
								c-0.6-0.7-1-1.7-1.4-2.9C6.5,6.2,6.3,3.5,6.7,0.9C6.8,0.5,6.5,0.1,6,0C5.6,0,5.2,0.3,5.2,0.7C4.8,3.5,5,6.4,5.8,9.1
								c0.4,1.4,1,2.5,1.7,3.4c0.2,0.3,0.5,0.5,0.9,0.8c0.4,0.3,1.2,1,1.2,1.3c0,0.1-0.1,0.2-0.2,0.3c-1.7,1.3-2.8,3.8-1.5,5.9
								C8,21.3,8.4,21.6,8.8,22c0.3,0.3,0.7,0.6,0.9,1c0.1,0.1,0.1,0.2,0.1,0.4c0,0.8-1.2,1.3-1.7,1.7c-0.9,0.7-1.8,1.5-2.6,2.3
								c-1.5,1.5-2.9,3.3-4,5.2c-0.5,1-1,2.1-1.2,3.2c-0.7,3.4-0.1,6.5,1.4,9.5c1.2,2.4,2.8,4.5,3.2,7.3c0.1,0.4,0.4,0.7,0.8,0.7
								c0,0,0.1,0,0.1,0c0.4-0.1,0.7-0.5,0.7-0.9c-0.3-2.3-1.3-4.1-2.4-6c1.9-1.9,5-4.3,9.3-5.7c0.4-0.1,0.6-0.6,0.5-1
								c-0.1-0.4-0.6-0.6-1-0.5c-0.6,0.2-1.1,0.4-1.7,0.6c-1.6,0.7-3.2,1.5-4.6,2.5C5.5,43,4.4,44,3.3,44.9c-0.7-1-1.1-2.4-1.4-3.6
								c-0.6-2.5-0.4-5.3,0.8-7.6C3.1,33,3.6,32.2,4,31.6c0.5-0.7,1-1.4,1.6-2C6.4,28.7,7.2,28,8,27.2c0.8-0.7,1.7-1.2,2.5-2
								c0,0,0,0,0,0c0.1-0.1,0.2-0.2,0.3-0.3c7.5,4.9,21.1,12.1,24.6,14c-0.1,0.1-0.2,0.2-0.3,0.4c0,0,0,0,0,0
								c-0.1,0.1-0.2,0.3-0.3,0.4c0,0.1-0.6,1.2-0.6,1.2c-6.4-2.6-12.4-3.4-17.9-2.5c-0.4,0.1-0.7,0.5-0.6,0.9
								c0.1,0.4,0.5,0.7,0.9,0.6c5.5-0.9,11.5,0.1,17.9,2.8c1.3,2.2,0.4,7.2,0,9.7l0,0.1c-0.1,0.4,0.2,0.8,0.6,0.9c0,0,0.1,0,0.1,0
								c0.4,0,0.7-0.3,0.8-0.6l0-0.1c0.2-0.9,0.3-1.8,0.4-2.8c0.2-1.5,0.3-3.1,0.2-4.7c-0.1-0.7-0.2-1.4-0.4-2.1
								c-0.1-0.3-0.2-0.6-0.4-0.9c-0.2-0.3-0.4-0.5-0.2-0.9c0.3-0.5,0.6-1,1-1.5c0.4-0.5,0.8-0.9,1.3-1.2c0.4-0.2,0.8-0.4,1.2-0.6
								c0.3-0.1,0.5-0.2,0.8-0.4c1.3-0.6,2.8-1.4,3.9-2.6c1.3-1.4,2.2-3,2.7-4.6c0-0.1,0.1-0.1,0.1-0.2c0-0.1,0.1-0.2,0.1-0.3
								C47.7,25.9,47.2,21.3,45.3,17.6L45.3,17.6z"/>
							<path id="Path_6_" d="M34.9,13c-0.4,0.1-0.7,0.5-0.7,0.9c0.1,0.5,0.2,1.1,0.3,1.6c0.1,0.4,0.4,0.6,0.8,0.6c0,0,0.1,0,0.1,0
								c0.4-0.1,0.7-0.5,0.6-0.9c-0.1-0.5-0.2-1-0.3-1.5C35.7,13.2,35.3,12.9,34.9,13L34.9,13z"/>
							<path id="Path_7_" d="M35.7,17.3c-0.4,0.1-0.7,0.5-0.5,1c0,0.1,0.1,0.2,0.1,0.3c0.1,0.4,0.2,0.8,0.4,1.2
								c0.1,0.3,0.4,0.5,0.7,0.5c0.1,0,0.2,0,0.2,0c0.4-0.1,0.6-0.6,0.5-1c-0.1-0.5-0.3-0.9-0.4-1.2c0-0.1,0-0.2-0.1-0.3
								C36.5,17.4,36.1,17.1,35.7,17.3L35.7,17.3z"/>
							<path id="Path_8_" d="M37.7,24.4c0.4-0.1,0.7-0.5,0.6-0.9c-0.1-0.3-0.2-0.7-0.3-1c-0.1-0.2-0.1-0.4-0.2-0.6
								c-0.1-0.4-0.6-0.6-1-0.5c-0.4,0.1-0.6,0.6-0.5,1c0.1,0.2,0.1,0.4,0.2,0.5c0.1,0.3,0.2,0.6,0.2,0.9c0.1,0.4,0.4,0.6,0.8,0.6
								C37.6,24.4,37.7,24.4,37.7,24.4L37.7,24.4z"/>
							<path id="Path_9_" d="M37.5,28c0,0.4,0.4,0.7,0.8,0.7c0,0,0,0,0.1,0c0.4,0,0.7-0.4,0.7-0.8c0-0.5-0.1-1.1-0.2-1.6
								c-0.1-0.4-0.4-0.7-0.9-0.7c-0.4,0.1-0.7,0.4-0.7,0.9C37.4,27,37.4,27.5,37.5,28L37.5,28z"/>
							<path id="Path_10_" d="M38.2,33.1C38.2,33.1,38.2,33.1,38.2,33.1c0.5,0,0.8-0.3,0.8-0.7c0-0.5,0.1-1.1,0.1-1.6
								c0-0.4-0.3-0.8-0.8-0.8c-0.4,0-0.8,0.3-0.8,0.8c0,0.5,0,1-0.1,1.5C37.4,32.7,37.8,33.1,38.2,33.1L38.2,33.1z"/>
							<path id="Path_11_" d="M34.7,11.7C34.7,11.7,34.7,11.7,34.7,11.7c0.5,0,0.8-0.4,0.8-0.8c0-0.5-0.1-1-0.1-1.5
								c0-0.4-0.4-0.8-0.8-0.8c0,0,0,0,0,0c-0.4,0-0.8,0.4-0.8,0.8c0,0.5,0,1.1,0.1,1.6C33.9,11.4,34.3,11.7,34.7,11.7L34.7,11.7z"
								/>
							<path id="Path_12_" d="M12.3,9.3c0,0.4,0.4,0.7,0.8,0.7c0,0,0,0,0,0c0.4,0,0.8-0.4,0.7-0.8c0-0.5-0.1-1-0.1-1.5
								c0-0.4-0.4-0.7-0.8-0.7c-0.4,0-0.7,0.4-0.7,0.9C12.3,8.3,12.3,8.8,12.3,9.3z"/>
							<path id="Path_13_" d="M13.2,11.2c-0.4,0-0.8,0.4-0.8,0.8c0,0.5,0,0.9,0,1.4c0,0.4,0.3,0.8,0.7,0.8c0,0,0,0,0,0
								c0.4,0,0.8-0.3,0.8-0.8c0-0.5,0-1,0-1.5C14,11.6,13.6,11.2,13.2,11.2z"/>
							<path id="Path_14_" d="M12.7,18.5c0,0,0.1,0,0.1,0c0.4,0,0.7-0.3,0.8-0.7c0.1-0.5,0.1-1,0.2-1.5c0-0.4-0.3-0.8-0.7-0.9
								c-0.4,0-0.8,0.3-0.8,0.7c0,0.5-0.1,1-0.2,1.4C12,18,12.3,18.4,12.7,18.5z"/>
							<path id="Path_15_" d="M11.8,22.6c0.1,0,0.1,0,0.2,0c0.3,0,0.7-0.2,0.7-0.6c0.1-0.5,0.2-1,0.3-1.4c0.1-0.4-0.2-0.8-0.6-0.9
								c-0.4-0.1-0.8,0.2-0.9,0.6c-0.1,0.5-0.2,0.9-0.3,1.4C11.1,22.1,11.4,22.5,11.8,22.6z"/>
						</g>
					</g>
				</g>
			</g>
		</g>
	</g>
</g>
</svg>
