<?xml version="1.0" encoding="utf-8"?>
<!-- Generator: Adobe Illustrator 25.0.0, SVG Export Plug-In . SVG Version: 6.00 Build 0)  -->
<svg version="1.1" id="Layer_1" xmlns="http://www.w3.org/2000/svg" xmlns:xlink="http://www.w3.org/1999/xlink" x="0px" y="0px"
	 viewBox="0 0 80 80" style="enable-background:new 0 0 80 80;" xml:space="preserve">
<style type="text/css">
	.st0{fill-rule:evenodd;clip-rule:evenodd;fill:url(#path-2_3_);}
	.st1{filter:url(#Adobe_OpacityMaskFilter);}
	.st2{fill-rule:evenodd;clip-rule:evenodd;fill:#FFFFFF;}
	.st3{mask:url(#mask-3_1_);}
</style>
<desc>Created with Sketch.</desc>
<g id="Design">
	<g id="cpa-97_design" transform="translate(-323.000000, -991.000000)">
		<g id="_x2705_-art1" transform="translate(0.000000, 724.000000)">
			<g id="content" transform="translate(160.000000, 267.000000)">
				<g id="_x32_" transform="translate(143.000000, 0.000000)">
					<g id="a1-2" transform="translate(20.000000, 0.000000)">
						<g id="Rectangle">
							
								<linearGradient id="path-2_3_" gradientUnits="userSpaceOnUse" x1="-518.6599" y1="740.8588" x2="-519.1988" y2="740.0743" gradientTransform="matrix(80 0 0 -80 41554 59277.8281)">
								<stop  offset="0" style="stop-color:#9071EC"/>
								<stop  offset="1" style="stop-color:#354DCF"/>
							</linearGradient>
							<path id="path-2_1_" class="st0" d="M6,0h68c3.3,0,6,2.7,6,6v68c0,3.3-2.7,6-6,6H6c-3.3,0-6-2.7-6-6V6C0,2.7,2.7,0,6,0z"/>
						</g>
						<defs>
							<filter id="Adobe_OpacityMaskFilter" filterUnits="userSpaceOnUse" x="17.1" y="12" width="46.8" height="55">
								<feColorMatrix  type="matrix" values="1 0 0 0 0  0 1 0 0 0  0 0 1 0 0  0 0 0 1 0"/>
							</filter>
						</defs>
						<mask maskUnits="userSpaceOnUse" x="17.1" y="12" width="46.8" height="55" id="mask-3_1_">
							<g class="st1">
								<path id="path-2_2_" class="st2" d="M6,0h68c3.3,0,6,2.7,6,6v68c0,3.3-2.7,6-6,6H6c-3.3,0-6-2.7-6-6V6C0,2.7,2.7,0,6,0z"/>
							</g>
						</mask>
						<g id="aesthetic" class="st3">
							<g id="Path" transform="translate(17.000000, 12.000000)">
								<path d="M24.2,33.8c0-4.7,2.3-9.1,4.5-11.8c0.3-0.3,0.2-0.9-0.1-1.1c-0.3-0.3-0.8-0.2-1.1,0.1c-1.5,1.9-3.1,4.6-4.1,7.6
									c-0.9-3.1-2.5-5.8-4.1-7.6c-0.3-0.3-0.8-0.4-1.1-0.1c-0.3,0.3-0.4,0.8-0.1,1.1c2.2,2.6,4.5,7.1,4.5,11.8
									c0,2.2-0.6,4.3-1.8,5.7c-0.3,0.4-0.2,0.9,0.1,1.1c0.1,0.1,0.3,0.2,0.5,0.2c0.2,0,0.5-0.1,0.6-0.3c0.2-0.3,0.4-0.5,0.6-0.8
									v14.5c0,0.4,0.4,0.8,0.8,0.8c0.4,0,0.8-0.4,0.8-0.8V39.9c0.1,0.2,0.3,0.4,0.4,0.6c0.2,0.2,0.4,0.3,0.6,0.3
									c0.2,0,0.3-0.1,0.5-0.2c0.3-0.3,0.4-0.8,0.1-1.1C24.9,38.1,24.2,36,24.2,33.8L24.2,33.8z"/>
								<path d="M36.8,40.4c-0.4,0.2-0.6,0.7-0.4,1.1c0.1,0.3,0.4,0.5,0.7,0.5c0.1,0,0.2,0,0.3-0.1c0.5-0.2,1-0.5,1.5-0.8
									c0,0,0,0,0,0l0,0c0.4-0.3,0.5-0.8,0.2-1.1c-0.2-0.4-0.7-0.5-1.1-0.2C37.6,39.9,37.2,40.2,36.8,40.4L36.8,40.4z"/>
								<path d="M34.2,41.1c-0.5,0.1-1,0.1-1.5,0.1c-0.4,0-0.8,0.3-0.8,0.8c0,0.4,0.3,0.8,0.8,0.8c0.1,0,0.2,0,0.3,0
									c0.5,0,1,0,1.5-0.1c0.4-0.1,0.7-0.5,0.7-0.9C35.1,41.3,34.7,41,34.2,41.1L34.2,41.1z"/>
								<path d="M29.9,42.3c0.3,0,0.6-0.2,0.8-0.5c0.2-0.4-0.1-0.9-0.5-1c-0.3-0.1-0.5-0.2-0.8-0.3c-0.4-0.2-0.9,0-1.1,0.4
									c-0.2,0.4,0,0.9,0.4,1.1c0.3,0.2,0.6,0.3,0.9,0.4C29.7,42.2,29.8,42.3,29.9,42.3L29.9,42.3z"/>
								<path d="M42.7,35.4c0.1,0,0.1,0,0.2,0c0.3,0,0.7-0.2,0.8-0.6c0.2-0.6,0.3-1.2,0.3-1.7c0-0.4-0.3-0.8-0.7-0.9
									c-0.4,0-0.8,0.3-0.9,0.7c0,0.5-0.1,1-0.3,1.4C42,34.8,42.3,35.2,42.7,35.4L42.7,35.4z"/>
								<path d="M41,36.8c-0.3,0.4-0.6,0.8-0.9,1.2c-0.3,0.3-0.3,0.8,0,1.1c0.2,0.1,0.3,0.2,0.5,0.2c0.2,0,0.4-0.1,0.6-0.3
									c0.4-0.4,0.8-0.9,1.1-1.4c0.2-0.4,0.1-0.9-0.2-1.1C41.8,36.3,41.3,36.4,41,36.8L41,36.8z"/>
								<path d="M5.7,39c0.2,0.2,0.4,0.3,0.6,0.3c0.2,0,0.4-0.1,0.5-0.2c0.3-0.3,0.3-0.8,0-1.1c-0.3-0.4-0.6-0.8-0.9-1.2
									c-0.2-0.4-0.7-0.5-1.1-0.2c-0.4,0.2-0.5,0.8-0.2,1.1C5,38.1,5.3,38.6,5.7,39L5.7,39z"/>
								<path d="M9,39.7c-0.4-0.2-0.9-0.2-1.1,0.2c-0.2,0.4-0.2,0.9,0.2,1.1l0,0c0,0,0,0,0,0c0.5,0.3,1,0.5,1.5,0.8
									c0.1,0,0.2,0.1,0.3,0.1c0.3,0,0.6-0.2,0.7-0.5c0.2-0.4,0-0.9-0.4-1.1C9.8,40.2,9.4,39.9,9,39.7L9,39.7z"/>
								<path d="M4.9,34.4c-0.1-0.5-0.2-1-0.3-1.4c0-0.4-0.4-0.8-0.9-0.7c-0.4,0-0.8,0.4-0.7,0.9c0.1,0.6,0.2,1.2,0.3,1.7
									c0.1,0.4,0.4,0.6,0.8,0.6c0.1,0,0.1,0,0.2,0C4.8,35.2,5,34.8,4.9,34.4L4.9,34.4z"/>
								<path d="M14.1,42.8c0.1,0,0.2,0,0.3,0c0.4,0,0.8-0.4,0.8-0.8c0-0.4-0.4-0.8-0.8-0.8c0,0,0,0,0,0c-0.5,0-1,0-1.5-0.1
									c-0.4-0.1-0.8,0.2-0.9,0.7c-0.1,0.4,0.2,0.9,0.7,0.9C13.1,42.8,13.6,42.8,14.1,42.8z"/>
								<path d="M17.6,40.4c-0.2,0.1-0.5,0.2-0.8,0.3c-0.4,0.2-0.6,0.6-0.5,1c0.1,0.3,0.4,0.5,0.8,0.5c0.1,0,0.2,0,0.3,0
									c0.3-0.1,0.6-0.3,0.9-0.4c0.4-0.2,0.6-0.7,0.4-1.1S18,40.2,17.6,40.4z"/>
								<path d="M37.5,13.4c0.1,0,0.3,0,0.4-0.1c0.4-0.2,0.5-0.7,0.3-1.1c-2-3.5-2.2-6.3-2-8C36.4,2.3,37,1.3,37,1.3
									c0.2-0.4,0.1-0.9-0.2-1.1c-0.4-0.2-0.9-0.1-1.1,0.2c-0.1,0.2-3.1,4.9,1.2,12.6C37,13.2,37.2,13.4,37.5,13.4z"/>
								<path d="M46.1,26.5c-1.4-5.5-4.5-9.6-5.7-11.1c-0.1-0.1-0.1-0.2-0.2-0.2c-0.3-0.3-0.8-0.4-1.1-0.1c-0.3,0.3-0.4,0.8-0.1,1.1
									c0.1,0.1,0.1,0.2,0.2,0.3c1.2,1.4,4,5.3,5.4,10.5c1.7,6.5,0.4,12.8-3.7,18.7c-1,1.4-1.9,2.8-2.7,3.9l-2.8,4.3
									c-0.2,0.4-0.1,0.9,0.2,1.1C35.8,55,36,55,36.1,55c0.3,0,0.5-0.1,0.7-0.4l2.8-4.3c0.7-1.1,1.6-2.5,2.6-3.9
									c2.4-3.4,3.9-7,4.5-10.7C47.1,32.8,47,29.6,46.1,26.5z"/>
								<path d="M8.8,49.5c-0.7-1.1-1.6-2.5-2.6-3.9C1.8,39.4,0.6,32.8,2.7,26c0.1-0.4-0.1-0.9-0.5-1c-0.4-0.1-0.9,0.1-1,0.5
									c-1,3.3-1.3,6.5-0.9,9.7c0.5,3.9,2,7.7,4.6,11.3c1,1.4,1.9,2.8,2.6,3.9l2.8,4.3c0.2,0.2,0.4,0.4,0.7,0.4
									c0.2,0,0.3,0,0.4-0.1c0.4-0.2,0.5-0.7,0.2-1.1L8.8,49.5z"/>
								<path d="M2.9,22.9C3.1,23,3.2,23,3.3,23c0.3,0,0.6-0.2,0.7-0.5c1.4-3,3-5.1,3.8-6.1c0.7-0.8,1.2-1.5,1.7-2.3
									c5.2-8.3,2-13.5,1.8-13.7c-0.2-0.4-0.7-0.5-1.1-0.2C9.9,0.4,9.8,0.9,10,1.2c0,0,0.7,1.1,0.8,3.2c0.2,2.7-0.8,5.7-2.7,8.8
									c-0.4,0.7-1,1.4-1.6,2.1c-0.9,1.1-2.6,3.3-4.1,6.5C2.4,22.2,2.5,22.7,2.9,22.9z"/>
							</g>
						</g>
					</g>
				</g>
			</g>
		</g>
	</g>
</g>
</svg>
