<?xml version="1.0" encoding="utf-8"?>
<!-- Generator: Adobe Illustrator 25.0.0, SVG Export Plug-In . SVG Version: 6.00 Build 0)  -->
<svg version="1.1" id="Layer_1" xmlns="http://www.w3.org/2000/svg" xmlns:xlink="http://www.w3.org/1999/xlink" x="0px" y="0px"
	 viewBox="0 0 80 80" style="enable-background:new 0 0 80 80;" xml:space="preserve">
<style type="text/css">
	.st0{fill-rule:evenodd;clip-rule:evenodd;fill:url(#path-2_3_);}
	.st1{filter:url(#Adobe_OpacityMaskFilter);}
	.st2{fill-rule:evenodd;clip-rule:evenodd;fill:#FFFFFF;}
	.st3{mask:url(#mask-3_1_);}
</style>
<desc>Created with Sketch.</desc>
<g id="Design">
	<g id="cpa-97_design" transform="translate(-466.000000, -991.000000)">
		<g id="_x2705_-art1" transform="translate(0.000000, 724.000000)">
			<g id="content" transform="translate(160.000000, 267.000000)">
				<g id="_x33_" transform="translate(286.000000, 0.000000)">
					<g id="a1-3" transform="translate(20.000000, 0.000000)">
						<g id="Rectangle">
							
								<linearGradient id="path-2_3_" gradientUnits="userSpaceOnUse" x1="-518.6599" y1="740.8588" x2="-519.1988" y2="740.0743" gradientTransform="matrix(80 0 0 -80 41554 59277.8281)">
								<stop  offset="0" style="stop-color:#9071EC"/>
								<stop  offset="1" style="stop-color:#354DCF"/>
							</linearGradient>
							<path id="path-2_1_" class="st0" d="M6,0h68c3.3,0,6,2.7,6,6v68c0,3.3-2.7,6-6,6H6c-3.3,0-6-2.7-6-6V6C0,2.7,2.7,0,6,0z"/>
						</g>
						<defs>
							<filter id="Adobe_OpacityMaskFilter" filterUnits="userSpaceOnUse" x="20.1" y="14" width="39.9" height="52">
								<feColorMatrix  type="matrix" values="1 0 0 0 0  0 1 0 0 0  0 0 1 0 0  0 0 0 1 0"/>
							</filter>
						</defs>
						<mask maskUnits="userSpaceOnUse" x="20.1" y="14" width="39.9" height="52" id="mask-3_1_">
							<g class="st1">
								<path id="path-2_2_" class="st2" d="M6,0h68c3.3,0,6,2.7,6,6v68c0,3.3-2.7,6-6,6H6c-3.3,0-6-2.7-6-6V6C0,2.7,2.7,0,6,0z"/>
							</g>
						</mask>
						<g id="belly" class="st3">
							<g id="Path" transform="translate(20.000000, 14.000000)">
								<path d="M3.4,50.9C3.4,50.9,3.4,50.9,3.4,50.9c-0.5-1.7-0.8-3.9-1-6.5c0-0.4-0.4-0.7-0.8-0.7c-0.4,0-0.7,0.4-0.7,0.8
									c0.2,2.8,0.5,5.1,1,6.8l0,0.1C2.1,51.8,2.4,52,2.7,52c0.1,0,0.1,0,0.2,0c0.4-0.1,0.7-0.5,0.5-0.9L3.4,50.9z"/>
								<path d="M18.9,21.9c0.4,0,0.8-0.3,0.8-0.8c0-0.2,0.2-0.4,0.4-0.4c0.2,0,0.4,0.2,0.4,0.4c0,0.4,0.3,0.8,0.8,0.8
									c0.4,0,0.8-0.3,0.8-0.8c0-1.1-0.9-1.9-1.9-1.9c-1.1,0-1.9,0.9-1.9,1.9C18.1,21.5,18.5,21.9,18.9,21.9z"/>
								<path d="M31.1,20.5c-0.4-0.1-0.8-0.3-1.1-0.6c-0.3-0.2-0.8-0.2-1.1,0.2c-0.2,0.3-0.2,0.8,0.2,1.1c0.5,0.3,1,0.6,1.6,0.8
									c0.1,0,0.1,0,0.2,0c0.3,0,0.6-0.2,0.7-0.5C31.7,21.1,31.5,20.6,31.1,20.5z"/>
								<path d="M27.1,15c0,0,0.1,0,0.1,0c0.4,0,0.7-0.3,0.8-0.6c0-0.1,0-0.1,0-0.2c0.1-0.4,0.2-0.7,0.4-1.1c0.2-0.4,0-0.8-0.4-1
									c-0.4-0.2-0.8,0-1,0.4c-0.2,0.4-0.4,0.9-0.5,1.4c0,0.1,0,0.2,0,0.2C26.4,14.6,26.7,15,27.1,15z"/>
								<path d="M29.4,11.5c0.2,0,0.3-0.1,0.5-0.2c0.4-0.3,0.7-0.5,1.1-0.7c0.4-0.2,0.6-0.6,0.4-1c-0.2-0.4-0.6-0.6-1-0.4
									c-0.5,0.2-1,0.5-1.5,0.9c-0.3,0.3-0.4,0.7-0.1,1.1C28.9,11.4,29.2,11.5,29.4,11.5z"/>
								<path d="M28.1,16.8c-0.1-0.4-0.5-0.7-0.9-0.6c-0.4,0.1-0.7,0.5-0.6,0.9c0,0.2,0.1,0.4,0.1,0.5c0.1,0.4,0.2,0.7,0.4,1
									c0.1,0.3,0.4,0.4,0.7,0.4c0.1,0,0.2,0,0.3-0.1c0.4-0.2,0.6-0.6,0.4-1c-0.1-0.3-0.2-0.5-0.3-0.8C28.1,17.1,28.1,17,28.1,16.8
									z"/>
								<path d="M12,19.1c0.1,0,0.2,0.1,0.3,0.1c0.3,0,0.6-0.2,0.7-0.4c0.1-0.3,0.3-0.7,0.4-1c0.1-0.2,0.1-0.4,0.1-0.5
									c0.1-0.4-0.2-0.8-0.6-0.9c-0.4-0.1-0.8,0.2-0.9,0.6c0,0.1-0.1,0.3-0.1,0.4c-0.1,0.3-0.2,0.6-0.3,0.8
									C11.4,18.5,11.6,19,12,19.1z"/>
								<path d="M9.2,22c0.1,0,0.1,0,0.2,0c0.6-0.2,1.1-0.4,1.6-0.8c0.3-0.2,0.4-0.7,0.2-1.1s-0.7-0.4-1.1-0.2
									c-0.3,0.2-0.7,0.4-1.1,0.6c-0.4,0.1-0.6,0.5-0.5,0.9C8.6,21.8,8.9,22,9.2,22z"/>
								<path d="M9.1,10.7c0.4,0.2,0.8,0.4,1.1,0.7c0.1,0.1,0.3,0.2,0.5,0.2c0.2,0,0.5-0.1,0.6-0.3c0.3-0.3,0.2-0.8-0.1-1.1
									c-0.5-0.4-1-0.7-1.5-0.9c-0.4-0.2-0.8,0-1,0.4C8.5,10.1,8.7,10.5,9.1,10.7z"/>
								<path d="M12.1,14.2c0,0.1,0,0.1,0,0.2c0.1,0.4,0.4,0.6,0.8,0.6c0,0,0.1,0,0.1,0c0.4-0.1,0.7-0.5,0.6-0.9c0-0.1,0-0.2,0-0.2
									c-0.1-0.5-0.3-1-0.5-1.4c-0.2-0.4-0.6-0.5-1-0.4c-0.4,0.2-0.5,0.6-0.4,1C11.9,13.5,12,13.8,12.1,14.2z"/>
								<path d="M37.2,14.5c-3.3-3.4-3.3-6.9-3.3-6.9V0.8c0-0.4-0.3-0.8-0.8-0.8c-0.4,0-0.8,0.3-0.8,0.8v6.8c0,0.2,0,4.1,3.8,8
									c0,0,1.8,1.9,2.2,4.5c-2.3,0.9-5.1,1.8-8.4,2.5c-0.4,0.1-0.7,0.5-0.6,0.9c0.1,0.4,0.5,0.7,0.9,0.6c2.8-0.6,5.5-1.4,8.1-2.4
									c-0.1,0-0.5,2.2-0.6,2.5c-0.3,1.3-0.5,2.6-0.5,3.9c0,0,0,0,0,0.1c0,0,0,0.3,0.1,0.8c0,0-1.3,0.3-1.4,0.3
									c-1,0.2-1.9,0.4-2.9,0.7c-3.1,0.8-5.6,2.7-7.7,4.4c-1.6,1.4-3.6,3.1-5.4,5.2c-1.7-2.1-3.7-3.9-5.4-5.2
									c-2-1.7-4.5-3.6-7.7-4.4c-1-0.3-2-0.5-2.9-0.7c-0.5-0.1-0.9-0.1-1.4-0.3c0-0.3,0-0.5,0.1-0.8c0,0,0,0,0-0.1
									c0-2.1-0.7-4-1-6.1c0,0,0-0.1,0-0.1c0,0,0-0.1,0-0.1c0-0.1,0-0.1,0-0.2c3.1,1.2,7,2.3,11.8,3.2c2.8,0.5,4.7,0.7,6.5,0.8
									c0,0,0,0,0,0c1.8,0,3.7-0.2,6.5-0.8l0.2,0c0.4-0.1,0.7-0.5,0.6-0.9c-0.1-0.4-0.5-0.7-0.9-0.6l-0.2,0
									c-2.7,0.5-4.5,0.7-6.2,0.7c-1.7,0-3.6-0.2-6.2-0.7c-5-0.9-9-2-12.1-3.3C2.2,17.5,4,15.6,4,15.6c3.7-3.8,3.8-7.8,3.8-8V0.8
									C7.8,0.3,7.4,0,7,0C6.6,0,6.2,0.3,6.2,0.8v6.8c0,0,0,0.9-0.4,2.2c-0.4,1.2-1.2,3-2.9,4.7C1.3,16.2,0,18.6,0.1,21
									c0,1.1,0.5,2.1,0.7,3.2c0.2,1.3,0.5,2.6,0.6,3.9c0,0.1-0.1,0.6-0.1,1.4c0,0,0,0,0,0C1,31.9,0.7,36.3,0.8,40.9
									c0,0.4,0.3,0.7,0.8,0.7h0c0.4,0,0.8-0.4,0.8-0.8c-0.1-4,0.1-7.9,0.3-10.3c0,0,0.1,0,0.1,0c0.3,0.1,0.7,0.1,1.1,0.2
									c0.9,0.2,1.9,0.4,2.8,0.6c2.8,0.8,5.2,2.5,7.1,4.1c1.7,1.4,3.8,3.3,5.6,5.6c0,0,0,0,0,0.1v9.9c0,0.4,0.3,0.8,0.8,0.8
									c0.4,0,0.8-0.3,0.8-0.8v-9.9c0,0,0,0,0-0.1c1.8-2.2,3.9-4.2,5.6-5.6c1.9-1.6,4.2-3.4,7.1-4.1c0.9-0.2,1.9-0.4,2.8-0.6
									c0.4-0.1,0.7-0.1,1.1-0.2c0,0,0.1,0,0.1,0c0.1,1.6,0.2,3.8,0.3,6.3c0.1,6.2-0.2,11.1-1.1,14.1c0,0,0,0,0,0l0,0.1
									c-0.1,0.4,0.1,0.8,0.6,0.9c0.1,0,0.1,0,0.2,0c0.3,0,0.7-0.2,0.7-0.6l0-0.1c0.9-3.1,1.1-6.4,1.2-9.5c0.1-2.8,0-5.7-0.1-8.5
									c-0.1-1-0.1-2.1-0.2-3.1c-0.1-1.3-0.3-2.7-0.1-3.9c0.1-0.9,0.4-1.9,0.7-2.8c0.1-0.2,0.1-0.5,0.2-0.7
									C40.8,18.3,37.4,14.7,37.2,14.5L37.2,14.5z"/>
							</g>
						</g>
					</g>
				</g>
			</g>
		</g>
	</g>
</g>
</svg>
