<?xml version="1.0" encoding="utf-8"?>
<!-- Generator: Adobe Illustrator 25.0.0, SVG Export Plug-In . SVG Version: 6.00 Build 0)  -->
<svg version="1.1" id="Layer_1" xmlns="http://www.w3.org/2000/svg" xmlns:xlink="http://www.w3.org/1999/xlink" x="0px" y="0px"
	 viewBox="0 0 80 80" style="enable-background:new 0 0 80 80;" xml:space="preserve">
<style type="text/css">
	.st0{fill-rule:evenodd;clip-rule:evenodd;fill:url(#path-2_3_);}
	.st1{filter:url(#Adobe_OpacityMaskFilter);}
	.st2{fill-rule:evenodd;clip-rule:evenodd;fill:#FFFFFF;}
	.st3{mask:url(#mask-3_1_);}
</style>
<desc>Created with Sketch.</desc>
<g id="Design">
	<g id="cpa-97_design" transform="translate(-609.000000, -991.000000)">
		<g id="_x2705_-art1" transform="translate(0.000000, 724.000000)">
			<g id="content" transform="translate(160.000000, 267.000000)">
				<g id="_x34_" transform="translate(429.000000, 0.000000)">
					<g id="a1-4" transform="translate(20.000000, 0.000000)">
						<g id="Rectangle">
							
								<linearGradient id="path-2_3_" gradientUnits="userSpaceOnUse" x1="-518.6599" y1="740.8588" x2="-519.1988" y2="740.0743" gradientTransform="matrix(80 0 0 -80 41554 59277.8281)">
								<stop  offset="0" style="stop-color:#9071EC"/>
								<stop  offset="1" style="stop-color:#354DCF"/>
							</linearGradient>
							<path id="path-2_1_" class="st0" d="M6,0h68c3.3,0,6,2.7,6,6v68c0,3.3-2.7,6-6,6H6c-3.3,0-6-2.7-6-6V6C0,2.7,2.7,0,6,0z"/>
						</g>
						<defs>
							<filter id="Adobe_OpacityMaskFilter" filterUnits="userSpaceOnUse" x="20" y="11.1" width="40.9" height="58.9">
								<feColorMatrix  type="matrix" values="1 0 0 0 0  0 1 0 0 0  0 0 1 0 0  0 0 0 1 0"/>
							</filter>
						</defs>
						<mask maskUnits="userSpaceOnUse" x="20" y="11.1" width="40.9" height="58.9" id="mask-3_1_">
							<g class="st1">
								<path id="path-2_2_" class="st2" d="M6,0h68c3.3,0,6,2.7,6,6v68c0,3.3-2.7,6-6,6H6c-3.3,0-6-2.7-6-6V6C0,2.7,2.7,0,6,0z"/>
							</g>
						</mask>
						<g id="belly-_x28_1_x29_" class="st3">
							<g id="Path" transform="translate(20.000000, 11.000000)">
								<path d="M32.6,59C32.6,59,32.6,59,32.6,59c-0.5,0-0.9-0.4-0.8-0.9c0.1-1.4,0.4-2.9,0.8-4.4c0.1-0.5,0.6-0.7,1.1-0.6
									c0.4,0.1,0.7,0.6,0.6,1.1c-0.4,1.4-0.7,2.8-0.8,4C33.4,58.6,33.1,59,32.6,59L32.6,59z"/>
								<path d="M11,14.9c0.1,0,0.2,0.1,0.3,0.1c0.3,0,0.6-0.2,0.8-0.5c0.2-0.6,0.4-1.2,0.6-1.8c0.1-0.5-0.2-0.9-0.6-1
									c-0.5-0.1-0.9,0.2-1,0.7c-0.1,0.5-0.3,1-0.5,1.5C10.3,14.2,10.5,14.7,11,14.9z"/>
								<path d="M11.1,9.5c0.1,0.4,0.4,0.8,0.8,0.8c0,0,0.1,0,0.1,0c0.5-0.1,0.8-0.5,0.7-1c-0.1-0.6-0.2-1.2-0.4-1.8
									c-0.1-0.5-0.6-0.7-1.1-0.6c-0.4,0.1-0.7,0.6-0.5,1.1C11,8.5,11.1,9,11.1,9.5z"/>
								<path d="M10.3,16.1c-0.4-0.2-0.9-0.1-1.1,0.3C9,16.6,9,16.8,8.9,16.9c-0.2,0.4-0.1,0.9,0.3,1.2c0.1,0.1,0.3,0.1,0.4,0.1
									c0.3,0,0.6-0.1,0.7-0.4c0.1-0.2,0.2-0.3,0.3-0.5C10.9,16.9,10.7,16.3,10.3,16.1z"/>
								<path d="M28.9,10.3c0,0,0.1,0,0.1,0c0.4,0,0.8-0.3,0.8-0.8C29.9,9,30,8.5,30.1,8C30.3,7.6,30,7.1,29.6,7
									c-0.4-0.1-0.9,0.1-1.1,0.6c-0.2,0.6-0.3,1.2-0.4,1.8C28.1,9.8,28.4,10.2,28.9,10.3z"/>
								<path d="M30.3,17.3c0.1,0.2,0.2,0.4,0.3,0.5c0.2,0.3,0.4,0.4,0.7,0.4c0.1,0,0.3,0,0.4-0.1c0.4-0.2,0.5-0.8,0.3-1.2
									c-0.1-0.1-0.2-0.3-0.3-0.5c-0.2-0.4-0.7-0.6-1.1-0.3C30.2,16.3,30.1,16.9,30.3,17.3z"/>
								<path d="M28.9,11.7c-0.5,0.1-0.7,0.6-0.6,1c0.1,0.6,0.3,1.2,0.6,1.8c0.1,0.3,0.5,0.5,0.8,0.5c0.1,0,0.2,0,0.3-0.1
									c0.4-0.2,0.6-0.7,0.4-1.1c-0.2-0.5-0.4-1-0.5-1.5C29.8,11.9,29.4,11.6,28.9,11.7L28.9,11.7z"/>
								<path d="M4.7,40.5c0.1,0.4,0.4,0.6,0.8,0.6c0.1,0,0.1,0,0.2,0c0.5-0.1,0.7-0.6,0.6-1c-0.1-0.5-0.3-1.1-0.4-1.6
									c-0.1-0.5-0.6-0.8-1-0.7c-0.5,0.1-0.7,0.6-0.6,1C4.4,39.3,4.5,39.9,4.7,40.5L4.7,40.5z"/>
								<path d="M6.1,45.1c0.1,0.3,0.5,0.6,0.8,0.6c0.1,0,0.2,0,0.3-0.1c0.4-0.2,0.7-0.7,0.5-1.1c-0.2-0.5-0.4-1.1-0.6-1.6
									c-0.1-0.4-0.6-0.7-1.1-0.5c-0.4,0.2-0.7,0.6-0.5,1.1C5.7,44,5.9,44.6,6.1,45.1L6.1,45.1z"/>
								<path d="M11.6,53.2c-0.2-0.5-0.4-1-0.7-1.6c-0.2-0.4-0.7-0.6-1.1-0.4c-0.4,0.2-0.6,0.7-0.4,1.1c0.3,0.6,0.5,1.1,0.7,1.5
									c0.1,0.3,0.5,0.5,0.8,0.5c0.1,0,0.2,0,0.3-0.1C11.6,54.1,11.8,53.6,11.6,53.2z"/>
								<path d="M3.7,35.6c0.1,0.4,0.4,0.7,0.8,0.7c0,0,0.1,0,0.1,0c0.5-0.1,0.8-0.5,0.7-1c-0.1-0.6-0.1-1.1-0.2-1.7
									c0-0.5-0.4-0.8-0.9-0.8c-0.5,0-0.8,0.4-0.8,0.9C3.6,34.5,3.7,35.1,3.7,35.6L3.7,35.6z"/>
								<path d="M4.4,31.6c0.4,0,0.8-0.3,0.8-0.8c0.1-1,0.2-1.5,0.2-1.5c0.1-0.5-0.1-0.9-0.6-1.1c-0.5-0.1-0.9,0.1-1,0.6
									c0,0.1-0.2,0.7-0.3,1.9C3.5,31.2,3.9,31.6,4.4,31.6C4.4,31.6,4.4,31.6,4.4,31.6L4.4,31.6z"/>
								<path d="M8,49.6c0.1,0.3,0.4,0.5,0.8,0.5c0.1,0,0.2,0,0.4-0.1c0.4-0.2,0.6-0.7,0.4-1.1c-0.2-0.5-0.5-1-0.7-1.5
									c-0.2-0.4-0.7-0.6-1.1-0.4c-0.4,0.2-0.6,0.7-0.4,1.1C7.5,48.5,7.8,49,8,49.6z"/>
								<path d="M12.8,57c0-0.3-0.1-0.5-0.2-0.8c-0.1-0.5-0.6-0.7-1-0.6c-0.5,0.1-0.7,0.6-0.6,1c0.1,0.2,0.1,0.5,0.1,0.7
									c0,0.2,0.1,0.4,0.1,0.6c0.1,0.4,0.4,0.7,0.8,0.7c0,0,0.1,0,0.1,0c0.5-0.1,0.8-0.5,0.7-1C12.8,57.5,12.8,57.3,12.8,57
									L12.8,57z"/>
								<path d="M36.6,33c-0.5,0-0.9,0.3-0.9,0.8c0,0.5-0.1,1.1-0.2,1.7c-0.1,0.5,0.3,0.9,0.7,1c0,0,0.1,0,0.1,0
									c0.4,0,0.8-0.3,0.8-0.7c0.1-0.6,0.1-1.2,0.2-1.8C37.4,33.4,37,33,36.6,33z"/>
								<path d="M37.4,30.7c-0.1-1.2-0.3-1.8-0.3-1.9c-0.1-0.5-0.6-0.7-1-0.6c-0.5,0.1-0.7,0.6-0.6,1c0,0,0.1,0.5,0.2,1.5
									c0,0.4,0.4,0.8,0.8,0.8c0,0,0,0,0.1,0C37.1,31.6,37.4,31.2,37.4,30.7z"/>
								<path d="M35,38.4c-0.1,0.5-0.2,1.1-0.4,1.6c-0.1,0.5,0.2,0.9,0.6,1c0.1,0,0.1,0,0.2,0c0.4,0,0.7-0.3,0.8-0.6
									c0.1-0.6,0.3-1.1,0.4-1.7c0.1-0.5-0.2-0.9-0.6-1C35.6,37.6,35.1,37.9,35,38.4L35,38.4z"/>
								<path d="M34.8,45.1c0.2-0.5,0.4-1.1,0.6-1.6c0.1-0.4-0.1-0.9-0.5-1.1c-0.4-0.2-0.9,0.1-1.1,0.5c-0.2,0.5-0.4,1.1-0.6,1.6
									c-0.2,0.4,0.1,0.9,0.5,1.1c0.1,0,0.2,0.1,0.3,0.1C34.3,45.7,34.7,45.4,34.8,45.1L34.8,45.1z"/>
								<path d="M29.3,55.6c-0.5-0.1-0.9,0.2-1,0.6c-0.1,0.3-0.1,0.5-0.2,0.8c0,0.2-0.1,0.4-0.1,0.7c-0.1,0.5,0.3,0.9,0.7,1
									c0,0,0.1,0,0.1,0c0.4,0,0.8-0.3,0.8-0.7c0-0.2,0.1-0.4,0.1-0.6c0-0.2,0.1-0.4,0.1-0.7C30.1,56.2,29.8,55.7,29.3,55.6
									L29.3,55.6z"/>
								<path d="M33.2,46.9c-0.4-0.2-0.9,0-1.1,0.4c-0.2,0.5-0.5,1-0.7,1.5c-0.2,0.4,0,0.9,0.4,1.1c0.1,0.1,0.2,0.1,0.4,0.1
									c0.3,0,0.6-0.2,0.8-0.5c0.2-0.5,0.5-1.1,0.7-1.6C33.8,47.6,33.6,47.1,33.2,46.9L33.2,46.9z"/>
								<path d="M31.2,51.2c-0.4-0.2-0.9,0-1.1,0.4c-0.3,0.6-0.5,1.1-0.7,1.6c-0.2,0.4,0,0.9,0.5,1.1c0.1,0,0.2,0.1,0.3,0.1
									c0.3,0,0.6-0.2,0.8-0.5c0.2-0.5,0.4-0.9,0.7-1.5C31.8,51.9,31.6,51.4,31.2,51.2L31.2,51.2z"/>
								<path d="M40.6,31.4c-0.2-1.3-0.5-2.6-0.9-3.8c-0.2-0.6-0.4-1.1-0.5-1.7c-0.1-0.6-0.1-1.2-0.2-1.8c-0.1-0.7-0.3-1.4-0.6-2
									c-0.7-1.9-1.9-3.5-2.8-5.4c-0.4-0.9-0.8-1.8-1.2-2.7c-0.6-1.7-1.1-3.4-1.5-5.1c-0.5-2.6-0.9-5.4-0.7-8
									c0-0.5-0.3-0.9-0.8-0.9c-0.5,0-0.9,0.3-0.9,0.8c0,0.4-0.7,9.3,4.1,17.9c-5.2,0.7-9.9,1-14.2,0.9c0,0,0,0,0,0h0c0,0,0,0,0,0
									c-4.3,0.1-9-0.2-14.2-0.9c4.9-8.6,4.2-17.5,4.1-17.9c0-0.5-0.5-0.8-0.9-0.8C9,0.2,8.7,0.6,8.7,1c0,0.1,0.7,9.1-4.2,17.3
									c-0.1,0.2-0.9,1.3-1.5,2.7c-0.5,1-0.8,2.1-1.1,3.2c0,0,0,0,0,0c-0.1,0.7-0.1,1.4-0.3,2.1c-0.2,0.7-0.6,1.4-0.8,2.1
									c-0.3,1-0.5,2-0.6,3c-0.8,5.1,0,9.7,2.8,14.7c2.2,4.1,4.2,8.1,4.4,12.1c0,0.5,0.4,0.8,0.8,0.8c0,0,0,0,0,0
									c0.5,0,0.8-0.4,0.8-0.9c-0.2-4.4-2.3-8.5-4.6-12.8C2,40.6,1.2,36.4,2,31.7c0.2-1.4,0.5-2.8,1-4c0-0.1,0.1-0.3,0.2-0.4
									c0,0,0-0.1,0.1-0.1c0.7,0,1.4,0.1,2.1,0.1c0.9,0,1.9,0.1,2.9,0.2c0.5,0,0.9-0.3,0.9-0.8c0-0.5-0.3-0.9-0.8-0.9
									c-1-0.1-2-0.1-2.9-0.2c-0.6,0-1.2-0.1-1.8-0.1c0,0,0,0,0-0.1c0-0.1,0-0.2,0-0.3c0,0,0,0,0-0.1C3.7,24,4,23,4.5,22
									c0.1-0.1,0.7-1.6,0.8-1.6c5.6,0.8,10.6,1.1,15.2,1h0c4.6,0.1,9.6-0.3,15.2-1c0.7,1.2,1.6,3.2,1.8,5c-0.6,0-1.2,0.1-1.8,0.1
									c-1.1,0.1-2.2,0.1-3.3,0.2c-4.3,0.4-8.6,2.8-11.9,6.7c-2.3-2.7-5.2-4.8-8.2-5.9c-0.4-0.2-0.9,0.1-1.1,0.5
									c-0.2,0.4,0.1,0.9,0.5,1.1c2.9,1.1,5.7,3.1,7.9,5.9v23.8c0,0.5,0.4,0.9,0.8,0.9c0.5,0,0.8-0.4,0.8-0.9V34.2
									c3.1-3.9,7.1-6.3,11.2-6.7c1.1-0.1,2.2-0.2,3.2-0.2c0.7,0,1.4-0.1,2.1-0.1c0,0,0,0.1,0,0.1c0.1,0.2,0.1,0.3,0.2,0.4
									c0.4,1.3,0.7,2.6,1,4c0.7,4.7-0.1,8.9-2.6,13.6c-0.8,1.4-1.5,2.9-2.3,4.5c-0.2,0.4,0,0.9,0.4,1.1c0.1,0.1,0.2,0.1,0.4,0.1
									c0.3,0,0.6-0.2,0.8-0.5c0.7-1.5,1.5-3,2.2-4.4C40.6,41.1,41.4,36.5,40.6,31.4z"/>
							</g>
						</g>
					</g>
				</g>
			</g>
		</g>
	</g>
</g>
</svg>
