<?xml version="1.0" encoding="utf-8"?>
<!-- Generator: Adobe Illustrator 25.0.0, SVG Export Plug-In . SVG Version: 6.00 Build 0)  -->
<svg version="1.1" id="Layer_1" xmlns="http://www.w3.org/2000/svg" xmlns:xlink="http://www.w3.org/1999/xlink" x="0px" y="0px"
	 viewBox="0 0 80 80" style="enable-background:new 0 0 80 80;" xml:space="preserve">
<style type="text/css">
	.st0{fill-rule:evenodd;clip-rule:evenodd;fill:url(#path-2_3_);}
	.st1{filter:url(#Adobe_OpacityMaskFilter);}
	.st2{fill-rule:evenodd;clip-rule:evenodd;fill:#FFFFFF;}
	.st3{mask:url(#mask-3_1_);}
</style>
<desc>Created with Sketch.</desc>
<g id="Design">
	<g id="cpa-97_design" transform="translate(-752.000000, -991.000000)">
		<g id="_x2705_-art1" transform="translate(0.000000, 724.000000)">
			<g id="content" transform="translate(160.000000, 267.000000)">
				<g id="_x35_" transform="translate(572.000000, 0.000000)">
					<g id="a1-5" transform="translate(20.000000, 0.000000)">
						<g id="Rectangle">
							
								<linearGradient id="path-2_3_" gradientUnits="userSpaceOnUse" x1="-518.6599" y1="740.8588" x2="-519.1988" y2="740.0743" gradientTransform="matrix(80 0 0 -80 41554 59277.8281)">
								<stop  offset="0" style="stop-color:#9071EC"/>
								<stop  offset="1" style="stop-color:#354DCF"/>
							</linearGradient>
							<path id="path-2_1_" class="st0" d="M6,0h68c3.3,0,6,2.7,6,6v68c0,3.3-2.7,6-6,6H6c-3.3,0-6-2.7-6-6V6C0,2.7,2.7,0,6,0z"/>
						</g>
						<defs>
							<filter id="Adobe_OpacityMaskFilter" filterUnits="userSpaceOnUse" x="21" y="15" width="39" height="50">
								<feColorMatrix  type="matrix" values="1 0 0 0 0  0 1 0 0 0  0 0 1 0 0  0 0 0 1 0"/>
							</filter>
						</defs>
						<mask maskUnits="userSpaceOnUse" x="21" y="15" width="39" height="50" id="mask-3_1_">
							<g class="st1">
								<path id="path-2_2_" class="st2" d="M6,0h68c3.3,0,6,2.7,6,6v68c0,3.3-2.7,6-6,6H6c-3.3,0-6-2.7-6-6V6C0,2.7,2.7,0,6,0z"/>
							</g>
						</mask>
						<g id="breast" class="st3">
							<g id="Path" transform="translate(21.000000, 15.000000)">
								<path d="M1.5,19.5c0-0.4,0-0.8,0-1.2c0-0.4-0.3-0.8-0.7-0.8c-0.4,0-0.8,0.3-0.8,0.7c0,0.4,0,0.8,0,1.3
									c0,7.7,0,15.9,0.9,24.1c0,0.4,0.4,0.7,0.7,0.7c0,0,0.1,0,0.1,0c0.4,0,0.7-0.4,0.7-0.8C1.5,35.2,1.5,27.1,1.5,19.5z"/>
								<path d="M1.1,15.6c0.1,0,0.1,0,0.2,0c0.3,0,0.6-0.2,0.7-0.5c0.4-1.3,1-2.3,1.9-3.1c1.2-1.1,2.8-1.3,4.4-1.4
									c0.2,0,0.4,0,0.6-0.1c2.3-0.3,4.2-1.2,5.6-2.7C16,6.3,16,3.6,16,1.5c0-0.3,0-0.5,0-0.8C16,0.3,15.6,0,15.2,0
									c-0.4,0-0.7,0.3-0.7,0.7c0,0.2,0,0.5,0,0.8c0,1.9,0.1,4.2-1.1,5.4c-1.2,1.3-2.8,2-4.8,2.3c-0.2,0-0.4,0-0.5,0.1
									C6.4,9.4,4.5,9.6,2.9,11c-1.1,1-1.8,2.2-2.3,3.7C0.5,15.1,0.7,15.5,1.1,15.6z"/>
								<path d="M39,19.5c0-2.5-0.3-6.1-2.9-8.4c-1.5-1.4-3.5-1.6-5.2-1.8c-0.2,0-0.4,0-0.5-0.1c-2-0.2-3.6-1-4.8-2.3
									c-1.1-1.2-1.1-3.5-1.1-5.4c0-0.3,0-0.5,0-0.8c0-0.4-0.3-0.7-0.7-0.7C23.3,0,23,0.3,23,0.7c0,0.2,0,0.5,0,0.8
									c0,2.1-0.1,4.8,1.5,6.4c1.4,1.5,3.4,2.4,5.6,2.7c0.2,0,0.4,0,0.6,0.1c1.6,0.2,3.2,0.4,4.4,1.4c1.7,1.5,2.4,3.8,2.5,7.4
									c0,7.6,0,15.8-0.9,23.9c0,0.4,0.2,0.8,0.7,0.8c0,0,0.1,0,0.1,0c0.4,0,0.7-0.3,0.7-0.7C39,35.3,39,27.1,39,19.5L39,19.5z"/>
								<path d="M19.5,45.8c-1.2,0-2.2,1-2.2,2.2c0,0.4,0.3,0.7,0.7,0.7c0.4,0,0.7-0.3,0.7-0.7c0-0.4,0.3-0.7,0.7-0.7
									c0.4,0,0.7,0.3,0.7,0.7c0,0.4,0.3,0.7,0.7,0.7s0.7-0.3,0.7-0.7C21.7,46.8,20.7,45.8,19.5,45.8z"/>
								<path d="M32.5,45.6c-0.2-0.5-0.4-0.9-0.5-1.4c-0.6-1.7-1.3-3.4-1.7-5.3c-0.1-0.4-0.5-0.6-0.9-0.5c-0.4,0.1-0.6,0.5-0.6,0.9
									c0.4,1.9,1.1,3.8,1.7,5.5c0.2,0.5,0.4,0.9,0.5,1.4c0.4,1.1,0.9,2.3,1.2,3.4c0.1,0.3,0.4,0.5,0.7,0.5c0.1,0,0.2,0,0.2,0
									c0.4-0.1,0.6-0.5,0.5-0.9C33.4,47.9,32.9,46.7,32.5,45.6L32.5,45.6z"/>
								<path d="M36.5,25.8c-0.2-0.4-0.6-0.5-1-0.3l-0.3,0.1c1.5-2.5,1.5-4.8,1.5-4.9c0-0.4-0.3-0.7-0.7-0.7c0,0,0,0,0,0
									c-0.4,0-0.7,0.3-0.7,0.7c0,0,0,1.8-1.2,4l0-0.4c0-0.4-0.3-0.7-0.7-0.7c0,0,0,0,0,0c-0.4,0-0.7,0.3-0.7,0.7l0.1,2.9
									c0,0.2,0.1,0.5,0.4,0.6c0.1,0.1,0.3,0.1,0.4,0.1c0.1,0,0.2,0,0.3-0.1l2.5-1.2C36.5,26.6,36.7,26.2,36.5,25.8z"/>
								<path d="M29.1,36.5c0.4,0,0.7-0.4,0.7-0.8c0-0.2,0-0.4,0-0.7c-0.1-2.7,0.3-5.6,1.1-9.2c0,0,0,0,0,0c0.8-1.7,0.8-3.8,0-6
									c-0.1-0.4-0.3-0.8-0.4-1.2c-0.6-1.6-1.1-3-0.9-4.5c0.1-0.4-0.2-0.8-0.6-0.8c-0.4-0.1-0.8,0.2-0.8,0.6
									c-0.3,1.9,0.4,3.6,1,5.3c0.2,0.4,0.3,0.8,0.4,1.2c1,2.9,0.2,4.7-0.2,5.4c-0.9,1.4-2.2,1.9-3.1,2.1c-1.5,0.2-3-0.2-4.1-1.1
									c-0.3-0.3-0.8-0.2-1,0.1c-0.3,0.3-0.2,0.8,0.1,1c1.2,0.9,2.7,1.5,4.2,1.5c0.4,0,0.7,0,1.1-0.1c0.9-0.2,1.8-0.5,2.5-1
									c-0.5,2.5-0.7,4.7-0.6,6.8c0,0.2,0,0.5,0,0.7C28.3,36.2,28.6,36.5,29.1,36.5C29,36.5,29.1,36.5,29.1,36.5L29.1,36.5z"/>
								<path d="M18.1,26.9c-0.3-0.3-0.7-0.4-1-0.1c-1.1,0.9-2.7,1.3-4.1,1.1c-0.9-0.2-2.2-0.6-3.1-2.1c-0.1-0.1-0.2-0.3-0.3-0.5
									c0,0,0-0.1,0-0.1c0,0,0,0,0,0c-0.4-0.9-0.7-2.5,0.1-4.7c0.1-0.4,0.3-0.8,0.4-1.2c0.6-1.7,1.3-3.4,1-5.3
									c-0.1-0.4-0.4-0.7-0.8-0.6s-0.7,0.4-0.6,0.8c0.2,1.5-0.3,3-0.9,4.6c-0.2,0.4-0.3,0.8-0.4,1.2c-0.7,2.1-0.7,4.2,0,5.8
									c0.9,3.6,1.3,6.6,1.2,9.3c-0.1,3.3-1.1,6.3-2.2,9.1c-0.2,0.5-0.4,0.9-0.5,1.4C6,46.7,5.6,47.9,5.2,49
									c-0.1,0.4,0.1,0.8,0.5,0.9c0.1,0,0.2,0,0.2,0c0.3,0,0.6-0.2,0.7-0.5c0.4-1.1,0.8-2.3,1.2-3.4c0.2-0.5,0.4-0.9,0.5-1.4
									c1.1-2.9,2.2-6.1,2.3-9.6c0.1-2.1-0.1-4.3-0.6-6.8c0.7,0.5,1.6,0.9,2.5,1c0.4,0.1,0.7,0.1,1.1,0.1c1.5,0,3-0.5,4.2-1.5
									C18.3,27.6,18.3,27.2,18.1,26.9L18.1,26.9z"/>
								<path d="M5.6,28.1c0.1,0,0.3,0,0.4-0.1c0.2-0.1,0.3-0.4,0.4-0.6l0.1-2.9c0-0.4-0.3-0.7-0.7-0.7c0,0,0,0,0,0
									c-0.4,0-0.7,0.3-0.7,0.7l0,0.4c-1.2-2.1-1.2-3.9-1.2-4C3.7,20.4,3.4,20,3,20c0,0,0,0,0,0c-0.4,0-0.7,0.3-0.7,0.7
									c0,0.1,0,2.3,1.5,4.9l-0.3-0.1c-0.4-0.2-0.8,0-1,0.3c-0.2,0.4,0,0.8,0.4,1L5.3,28C5.4,28,5.5,28.1,5.6,28.1L5.6,28.1z"/>
							</g>
						</g>
					</g>
				</g>
			</g>
		</g>
	</g>
</g>
</svg>
