<?xml version="1.0" encoding="utf-8"?>
<!-- Generator: Adobe Illustrator 25.0.0, SVG Export Plug-In . SVG Version: 6.00 Build 0)  -->
<svg version="1.1" id="Layer_1" xmlns="http://www.w3.org/2000/svg" xmlns:xlink="http://www.w3.org/1999/xlink" x="0px" y="0px"
	 viewBox="0 0 80 80" style="enable-background:new 0 0 80 80;" xml:space="preserve">
<style type="text/css">
	.st0{fill-rule:evenodd;clip-rule:evenodd;fill:url(#path-2_3_);}
	.st1{filter:url(#Adobe_OpacityMaskFilter);}
	.st2{fill-rule:evenodd;clip-rule:evenodd;fill:#FFFFFF;}
	.st3{mask:url(#mask-3_1_);}
</style>
<desc>Created with Sketch.</desc>
<g id="Design">
	<g id="cpa-97_design" transform="translate(-895.000000, -991.000000)">
		<g id="_x2705_-art1" transform="translate(0.000000, 724.000000)">
			<g id="content" transform="translate(160.000000, 267.000000)">
				<g id="_x36_" transform="translate(715.000000, 0.000000)">
					<g id="a1-6" transform="translate(20.000000, 0.000000)">
						<g id="Rectangle">
							
								<linearGradient id="path-2_3_" gradientUnits="userSpaceOnUse" x1="-518.6599" y1="740.8588" x2="-519.1988" y2="740.0743" gradientTransform="matrix(80 0 0 -80 41554 59277.8281)">
								<stop  offset="0" style="stop-color:#9071EC"/>
								<stop  offset="1" style="stop-color:#354DCF"/>
							</linearGradient>
							<path id="path-2_1_" class="st0" d="M6,0h68c3.3,0,6,2.7,6,6v68c0,3.3-2.7,6-6,6H6c-3.3,0-6-2.7-6-6V6C0,2.7,2.7,0,6,0z"/>
						</g>
						<defs>
							<filter id="Adobe_OpacityMaskFilter" filterUnits="userSpaceOnUse" x="13" y="15" width="54.9" height="49.7">
								<feColorMatrix  type="matrix" values="1 0 0 0 0  0 1 0 0 0  0 0 1 0 0  0 0 0 1 0"/>
							</filter>
						</defs>
						<mask maskUnits="userSpaceOnUse" x="13" y="15" width="54.9" height="49.7" id="mask-3_1_">
							<g class="st1">
								<path id="path-2_2_" class="st2" d="M6,0h68c3.3,0,6,2.7,6,6v68c0,3.3-2.7,6-6,6H6c-3.3,0-6-2.7-6-6V6C0,2.7,2.7,0,6,0z"/>
							</g>
						</mask>
						<g id="arm" class="st3">
							<g transform="translate(13.000000, 15.000000)">
								<path id="Path" d="M37.2,42.6c-1.1,0-2,0.9-2,2c0,0.4,0.4,0.8,0.8,0.8c0.4,0,0.8-0.4,0.8-0.8c0-0.2,0.2-0.4,0.4-0.4
									s0.4,0.2,0.4,0.4c0,0.4,0.4,0.8,0.8,0.8c0.4,0,0.8-0.4,0.8-0.8C39.2,43.5,38.3,42.6,37.2,42.6L37.2,42.6z"/>
								<path id="Path_1_" d="M53,48.7c-0.2-0.9-0.5-1.8-0.7-2.7c-0.4-1.2-0.9-2.5-1.3-3.6c-0.2-0.5-0.4-1-0.6-1.4
									c-0.4-1-0.7-1.8-0.9-2.5c-0.1-0.4-0.6-0.6-1-0.5c-0.4,0.1-0.6,0.6-0.5,1c0.3,0.7,0.5,1.5,0.9,2.6c0.2,0.5,0.4,1,0.6,1.5
									c0.5,1.2,0.9,2.4,1.3,3.6c0.3,0.8,0.5,1.7,0.7,2.6c0.1,0.4,0.4,0.6,0.8,0.6c0.1,0,0.1,0,0.2,0C52.9,49.6,53.1,49.1,53,48.7
									L53,48.7z"/>
								<path id="Path_2_" d="M48.5,34.9c-0.2-0.9-0.3-1.8-0.4-2.6c1.6-1.3,2.7-3.4,2.7-5.6c0-1.9-0.9-3.5-1.7-5
									c-0.9-1.7-1.7-3.2-1.4-5c0.1-0.4-0.2-0.8-0.7-0.9c-0.4-0.1-0.8,0.2-0.9,0.7c-0.3,2.3,0.6,4.2,1.6,6c0.8,1.4,1.5,2.8,1.5,4.3
									c0,3.1-2.6,5.7-5.7,5.7c-3.1,0-5.7-2.5-5.7-5.7c0-0.4,0-0.8,0.1-1.1c0.1-0.4-0.2-0.9-0.6-0.9c-0.4-0.1-0.9,0.2-0.9,0.6
									c-0.1,0.5-0.1,1-0.1,1.5c0,0.6,0.1,1.1,0.2,1.7c-0.7,2.3-2.9,4-5.4,4c-3.1,0-5.7-2.5-5.7-5.7c0-0.4,0.1-0.8,0.2-1.3
									c0-0.1,0.1-0.2,0.1-0.2c0.3-0.9,0.8-1.8,1.3-2.8c1-1.8,2-3.7,1.6-6c-0.1-0.4-0.5-0.7-0.9-0.7c-0.4,0.1-0.7,0.5-0.7,0.9
									c0.3,1.8-0.6,3.3-1.4,5c-0.5,0.9-0.9,1.8-1.3,2.8c-2.3,0.4-4.9,0.4-7.1,0.1c-1.6-0.2-3.1-0.6-4.6-1.1
									c-0.5-0.2-1-0.4-1.5-0.6C10,22.3,9.1,22,8.2,21.7c-2.4-0.6-5-0.8-7.3-0.9c-0.4,0-0.8,0.3-0.8,0.8c0,0.4,0.3,0.8,0.8,0.8
									c2.3,0.1,4.7,0.3,7,0.8c0.8,0.2,1.6,0.5,2.4,0.9c0.5,0.2,1,0.4,1.6,0.6c1.6,0.5,3.2,0.9,4.9,1.2c1.1,0.2,2.3,0.2,3.5,0.2
									c1.1,0,2.3-0.1,3.4-0.2c0,0.2,0,0.4,0,0.6c0,2.3,1,4.3,2.7,5.6C26,35.3,25,38.2,24,40.9c-0.2,0.5-0.4,1-0.6,1.4
									c-0.5,1.2-0.9,2.4-1.3,3.6c-0.3,0.9-0.5,1.8-0.7,2.7c-0.1,0.4,0.2,0.9,0.6,1c0.1,0,0.1,0,0.2,0c0.4,0,0.7-0.3,0.8-0.6
									c0.2-0.9,0.4-1.7,0.7-2.6c0.4-1.2,0.9-2.4,1.3-3.6c0.2-0.5,0.4-1,0.6-1.5c1-2.6,1.9-5.3,2.3-8.2c0.9,0.4,2,0.7,3.1,0.7
									c2.7,0,5-1.4,6.3-3.6c1.3,2.1,3.6,3.6,6.3,3.6c1.1,0,2.2-0.3,3.1-0.7c0.1,0.6,0.2,1.3,0.3,2c0.1,0.4,0.4,0.6,0.8,0.6
									c0.1,0,0.1,0,0.2,0C48.3,35.7,48.6,35.3,48.5,34.9z"/>
								<path id="Path_3_" d="M0.8,14.8c0,0,0.1,0,0.1,0c1.2-0.2,2.3-0.4,3.5-0.6c1.5-0.3,3.2-0.6,4.7-0.8c2.7-0.5,5.4-0.9,7.9-1.3
									c0.5-0.1,1-0.1,1.6-0.2c0.4,0,0.7-0.1,1.1-0.1c0.4-0.1,0.8-0.5,0.7-0.9c-0.1-0.4-0.5-0.7-0.9-0.7c-0.3,0-0.7,0.1-1.1,0.1
									c-0.6,0.1-1.1,0.1-1.6,0.2c-2.6,0.4-5.3,0.8-8,1.3c-1.6,0.3-3.2,0.6-4.7,0.8C3,12.8,1.8,13,0.7,13.2
									c-0.4,0.1-0.7,0.5-0.6,0.9C0.1,14.5,0.4,14.8,0.8,14.8z"/>
								<path id="Path_4_" d="M23.4,11.1c0,0,0.1,0,0.1,0c0.9-0.1,1.7-0.3,2.4-0.4c0.2,0,0.5-0.1,0.7-0.1c2-0.4,4.5-0.8,5.8-2.7
									c1.3-1.8,1.3-4.7,1.2-6.7l0-0.3c0-0.4-0.4-0.8-0.8-0.8c-0.4,0-0.8,0.4-0.8,0.8l0,0.3c0,1.8,0.1,4.4-0.9,5.8
									c-1,1.3-3,1.7-4.8,2.1c-0.2,0-0.5,0.1-0.7,0.1c-0.7,0.1-1.5,0.3-2.4,0.4c-0.4,0.1-0.7,0.5-0.7,0.9
									C22.6,10.9,23,11.1,23.4,11.1L23.4,11.1z"/>
								<path id="Path_5_" d="M52.9,13.3c-1.1-1.3-2.5-2.5-4.1-3.5c-0.8-0.5-1.6-0.7-2.4-1c-1.2-0.4-2.4-0.8-3.1-1.8
									c-1-1.4-1-3.9-0.9-5.8l0-0.3C42.3,0.4,42,0,41.5,0c-0.4,0-0.8,0.3-0.8,0.8l0,0.3c0,2.1-0.1,4.9,1.2,6.7
									c1,1.4,2.5,1.9,3.9,2.4c0.8,0.3,1.5,0.5,2.1,0.9c1.5,0.9,2.8,2,3.7,3.1c1.1,1.3,1.7,3,1.7,4.8v4.2c0,0.4,0.4,0.8,0.8,0.8
									c0.4,0,0.8-0.4,0.8-0.8V19C54.9,16.9,54.2,14.9,52.9,13.3z"/>
								<path id="Shape" d="M4.3,22.7L4.3,22.7c-0.5,0-0.9-0.4-0.9-0.8c0-0.4,0.4-0.8,0.8-0.8l0.1,0c0.2,0,0.7,0,1.4,0h0
									c0.4,0,0.8,0.4,0.8,0.8c0,0.4-0.4,0.8-0.8,0.8C5,22.7,4.5,22.7,4.3,22.7z M8.6,22.6c-0.4,0-0.8-0.3-0.8-0.8
									c0-0.4,0.3-0.8,0.8-0.8c0.5,0,1,0,1.5,0c0.4,0,0.8,0.3,0.8,0.8c0,0.4-0.3,0.8-0.8,0.8C9.6,22.6,9.1,22.6,8.6,22.6
									C8.6,22.6,8.6,22.6,8.6,22.6z M13,22.5c-0.4,0-0.8-0.3-0.8-0.8c0-0.4,0.3-0.8,0.8-0.8c0.5,0,1,0,1.5-0.1
									c0.4,0,0.8,0.3,0.8,0.8c0,0.4-0.3,0.8-0.8,0.8C14.1,22.4,13.6,22.5,13,22.5C13.1,22.5,13,22.5,13,22.5z M17.4,22.2
									c-0.4,0-0.8-0.3-0.8-0.7c0-0.4,0.3-0.8,0.7-0.9c0.5,0,1-0.1,1.5-0.1c0.4,0,0.8,0.3,0.9,0.7c0,0.4-0.3,0.8-0.7,0.9
									C18.5,22.1,18,22.2,17.4,22.2C17.5,22.2,17.5,22.2,17.4,22.2z M21.8,21.7c-0.4,0-0.7-0.3-0.8-0.7c-0.1-0.4,0.2-0.8,0.7-0.9
									c0.5-0.1,1-0.1,1.5-0.2c0.4-0.1,0.9,0.2,0.9,0.7c0.1,0.4-0.2,0.9-0.7,0.9c-0.5,0.1-1,0.2-1.5,0.2
									C21.9,21.7,21.8,21.7,21.8,21.7z M26.1,20.8c-0.3,0-0.6-0.2-0.8-0.5c-0.1-0.4,0.1-0.9,0.5-1c0.4-0.1,0.7-0.2,0.9-0.4
									c0.4-0.2,0.9-0.1,1.1,0.3c0.2,0.4,0.1,0.9-0.3,1.1c-0.3,0.2-0.7,0.3-1.1,0.5C26.3,20.8,26.2,20.8,26.1,20.8L26.1,20.8z"/>
							</g>
						</g>
					</g>
				</g>
			</g>
		</g>
	</g>
</g>
</svg>
