<?xml version="1.0" encoding="utf-8"?>
<!-- Generator: Adobe Illustrator 25.0.0, SVG Export Plug-In . SVG Version: 6.00 Build 0)  -->
<svg version="1.1" id="Layer_1" xmlns="http://www.w3.org/2000/svg" xmlns:xlink="http://www.w3.org/1999/xlink" x="0px" y="0px"
	 viewBox="0 0 80 80" style="enable-background:new 0 0 80 80;" xml:space="preserve">
<style type="text/css">
	.st0{fill-rule:evenodd;clip-rule:evenodd;fill:url(#path-2_3_);}
	.st1{filter:url(#Adobe_OpacityMaskFilter);}
	.st2{fill-rule:evenodd;clip-rule:evenodd;fill:#FFFFFF;}
	.st3{mask:url(#mask-3_1_);}
</style>
<desc>Created with Sketch.</desc>
<g id="Design">
	<g id="cpa-97_design" transform="translate(-1038.000000, -991.000000)">
		<g id="_x2705_-art1" transform="translate(0.000000, 724.000000)">
			<g id="content" transform="translate(160.000000, 267.000000)">
				<g id="_x37_" transform="translate(858.000000, 0.000000)">
					<g id="a1-7" transform="translate(20.000000, 0.000000)">
						<g id="Rectangle">
							
								<linearGradient id="path-2_3_" gradientUnits="userSpaceOnUse" x1="-518.6599" y1="740.8588" x2="-519.1988" y2="740.0743" gradientTransform="matrix(80 0 0 -80 41554 59277.8281)">
								<stop  offset="0" style="stop-color:#9071EC"/>
								<stop  offset="1" style="stop-color:#354DCF"/>
							</linearGradient>
							<path id="path-2_1_" class="st0" d="M6,0h68c3.3,0,6,2.7,6,6v68c0,3.3-2.7,6-6,6H6c-3.3,0-6-2.7-6-6V6C0,2.7,2.7,0,6,0z"/>
						</g>
						<defs>
							<filter id="Adobe_OpacityMaskFilter" filterUnits="userSpaceOnUse" x="19.8" y="12" width="41.3" height="56">
								<feColorMatrix  type="matrix" values="1 0 0 0 0  0 1 0 0 0  0 0 1 0 0  0 0 0 1 0"/>
							</filter>
						</defs>
						<mask maskUnits="userSpaceOnUse" x="19.8" y="12" width="41.3" height="56" id="mask-3_1_">
							<g class="st1">
								<path id="path-2_2_" class="st2" d="M6,0h68c3.3,0,6,2.7,6,6v68c0,3.3-2.7,6-6,6H6c-3.3,0-6-2.7-6-6V6C0,2.7,2.7,0,6,0z"/>
							</g>
						</mask>
						<g id="anatomy" class="st3">
							<g transform="translate(19.000000, 12.000000)">
								<path id="Path" d="M17.7,34.6c-0.5,0-0.8,0.4-0.8,0.8c0,0.6-0.5,1-1,1c-0.6,0-1-0.5-1-1c0-0.5-0.4-0.8-0.8-0.8
									c-0.5,0-0.8,0.4-0.8,0.8c0,1.5,1.2,2.7,2.7,2.7c1.5,0,2.7-1.2,2.7-2.7C18.5,35,18.1,34.6,17.7,34.6L17.7,34.6z"/>
								<path id="Path_1_" d="M27.2,38.1c1.5,0,2.7-1.2,2.7-2.7c0-0.5-0.4-0.8-0.8-0.8c-0.5,0-0.8,0.4-0.8,0.8c0,0.6-0.5,1-1,1
									c-0.6,0-1-0.5-1-1c0-0.5-0.4-0.8-0.8-0.8c-0.5,0-0.8,0.4-0.8,0.8C24.5,36.9,25.7,38.1,27.2,38.1L27.2,38.1z"/>
								<path id="Path_2_" d="M31.5,49.7c0.1,0,0.2,0,0.3,0c0.5-0.2,1-0.4,1.4-0.7c0.4-0.3,0.5-0.8,0.2-1.1
									c-0.3-0.4-0.8-0.5-1.2-0.2c-0.3,0.2-0.6,0.4-1,0.5c-0.4,0.1-0.7,0.6-0.5,1C30.8,49.5,31.1,49.7,31.5,49.7L31.5,49.7z"/>
								<path id="Path_3_" d="M27.3,49.4c0.5,0.2,1,0.4,1.5,0.5c0.1,0,0.1,0,0.2,0c0.4,0,0.7-0.3,0.8-0.7c0.1-0.4-0.2-0.9-0.7-1
									c-0.4-0.1-0.7-0.2-1-0.3c-0.4-0.2-0.9,0-1.1,0.4C26.8,48.7,26.9,49.1,27.3,49.4L27.3,49.4z"/>
								<path id="Path_4_" d="M30.1,41.8c0.5,0,0.8-0.3,0.9-0.8s-0.3-0.8-0.8-0.9c-0.5,0-1,0-1.5,0.1c-0.4,0.1-0.7,0.5-0.6,1
									c0.1,0.4,0.4,0.6,0.8,0.6c0.1,0,0.1,0,0.2,0C29.3,41.8,29.7,41.7,30.1,41.8L30.1,41.8z"/>
								<path id="Path_5_" d="M33.9,47.1c0.1,0,0.2,0,0.3,0c0.3,0,0.7-0.2,0.8-0.5c0.2-0.5,0.3-1,0.3-1.6c0-0.1,0-0.1,0-0.2
									c0-0.5-0.4-0.8-0.9-0.8c-0.5,0-0.8,0.4-0.8,0.8c0,0,0,0.1,0,0.1c0,0.3-0.1,0.7-0.2,1C33.2,46.5,33.4,46.9,33.9,47.1
									L33.9,47.1z"/>
								<path id="Path_6_" d="M25.2,47.3c0.2,0.3,0.4,0.4,0.7,0.4c0.1,0,0.3,0,0.4-0.1c0.4-0.2,0.5-0.7,0.3-1.1
									c-0.2-0.3-0.3-0.6-0.4-1c-0.1-0.4-0.5-0.7-1-0.7c-0.4,0.1-0.7,0.5-0.7,0.9C24.7,46.4,24.9,46.9,25.2,47.3L25.2,47.3z"/>
								<path id="Path_7_" d="M27.2,41.6c-0.3-0.3-0.8-0.3-1.2,0c-0.4,0.4-0.7,0.8-0.9,1.3c-0.2,0.4-0.1,0.9,0.4,1.1
									c0.1,0.1,0.3,0.1,0.4,0.1c0.3,0,0.6-0.2,0.7-0.4c0.2-0.3,0.4-0.6,0.6-0.8C27.5,42.5,27.5,42,27.2,41.6L27.2,41.6z"/>
								<path id="Path_8_" d="M32,42.4c0.3,0.2,0.6,0.4,0.8,0.7c0.2,0.2,0.4,0.3,0.6,0.3c0.2,0,0.4-0.1,0.5-0.2
									c0.4-0.3,0.4-0.8,0.1-1.2c-0.3-0.4-0.7-0.8-1.2-1c-0.4-0.3-0.9-0.1-1.1,0.2C31.6,41.6,31.7,42.1,32,42.4z"/>
								<path id="Path_9_" d="M10.5,41.6c-0.3-0.3-0.8-0.3-1.2,0c-0.4,0.4-0.7,0.8-0.9,1.3c-0.2,0.4-0.1,0.9,0.4,1.1
									c0.1,0.1,0.3,0.1,0.4,0.1c0.3,0,0.6-0.2,0.7-0.4c0.2-0.3,0.4-0.6,0.6-0.8C10.8,42.5,10.8,42,10.5,41.6L10.5,41.6z"/>
								<path id="Path_10_" d="M8.6,44.9c-0.4,0.1-0.7,0.5-0.7,0.9c0.1,0.5,0.3,1,0.5,1.5c0.2,0.3,0.4,0.4,0.7,0.4
									c0.1,0,0.3,0,0.4-0.1c0.4-0.2,0.5-0.7,0.3-1.1c-0.2-0.3-0.3-0.6-0.4-1C9.4,45.1,9,44.8,8.6,44.9L8.6,44.9z"/>
								<path id="Path_11_" d="M14.7,49.7c0.1,0,0.2,0,0.3,0c0.5-0.2,1-0.4,1.4-0.7c0.4-0.3,0.5-0.8,0.2-1.1
									c-0.3-0.4-0.8-0.5-1.2-0.2c-0.3,0.2-0.6,0.4-1,0.5c-0.4,0.1-0.7,0.6-0.5,1C14,49.5,14.4,49.7,14.7,49.7L14.7,49.7z"/>
								<path id="Path_12_" d="M16.1,43.1c0.2,0.2,0.4,0.3,0.6,0.3c0.2,0,0.4-0.1,0.5-0.2c0.4-0.3,0.4-0.8,0.1-1.2
									c-0.3-0.4-0.7-0.8-1.2-1c-0.4-0.2-0.9-0.1-1.1,0.2c-0.3,0.4-0.1,0.9,0.2,1.1C15.6,42.6,15.9,42.8,16.1,43.1L16.1,43.1z"/>
								<path id="Path_13_" d="M17.1,47.1c0.1,0,0.2,0,0.3,0c0.3,0,0.7-0.2,0.8-0.5c0.2-0.5,0.3-1,0.3-1.6c0-0.1,0-0.1,0-0.2
									c0-0.5-0.4-0.8-0.9-0.8c-0.5,0-0.8,0.4-0.8,0.8c0,0,0,0.1,0,0.1c0,0.3-0.1,0.7-0.2,1C16.5,46.5,16.7,46.9,17.1,47.1
									L17.1,47.1z"/>
								<path id="Path_14_" d="M13.3,41.8c0.5,0,0.8-0.3,0.9-0.8c0-0.5-0.3-0.8-0.8-0.9c-0.5,0-1,0-1.5,0.1c-0.4,0.1-0.7,0.5-0.6,1
									c0.1,0.4,0.4,0.6,0.8,0.6c0.1,0,0.1,0,0.2,0C12.6,41.8,13,41.7,13.3,41.8L13.3,41.8z"/>
								<path id="Path_15_" d="M10.6,49.4c0.5,0.2,1,0.4,1.5,0.5c0.1,0,0.1,0,0.2,0c0.4,0,0.7-0.3,0.8-0.7c0.1-0.4-0.2-0.9-0.7-1
									c-0.4-0.1-0.7-0.2-1-0.3c-0.4-0.2-0.9,0-1.1,0.4C10,48.7,10.2,49.1,10.6,49.4z"/>
								<path id="Path_16_" d="M30.1,28.6c-0.4-0.2-0.9,0-1.1,0.5c-0.2,0.4,0,0.9,0.5,1.1c0.4,0.2,0.7,0.4,0.9,0.7
									c0.2,0.2,0.4,0.3,0.7,0.3c0.2,0,0.3,0,0.5-0.1c0.4-0.3,0.5-0.8,0.2-1.1C31.4,29.3,30.8,28.9,30.1,28.6L30.1,28.6z"/>
								<path id="Path_17_" d="M25.7,30.3c0.1,0,0.2,0,0.3-0.1c0.4-0.2,0.9-0.3,1.3-0.3c0.5,0,0.8-0.5,0.7-0.9
									c0-0.4-0.5-0.8-0.9-0.7c-0.7,0.1-1.3,0.2-1.8,0.5c-0.4,0.2-0.6,0.7-0.4,1.1C25.1,30.1,25.4,30.3,25.7,30.3L25.7,30.3z"/>
								<path id="Path_18_" d="M24.3,30.5c-0.4-0.2-0.9-0.1-1.1,0.3c-0.2,0.4-0.4,0.9-0.6,1.5c-0.1,0.4,0.1,0.9,0.5,1
									c0.1,0,0.2,0,0.2,0c0.4,0,0.7-0.2,0.8-0.6c0.2-0.5,0.3-0.9,0.5-1.2C24.9,31.2,24.7,30.7,24.3,30.5z"/>
								<path id="Path_19_" d="M19.6,33.4c0.1,0,0.2,0,0.2,0c0.4-0.1,0.7-0.6,0.5-1c-0.2-0.6-0.4-1-0.6-1.5
									c-0.2-0.4-0.7-0.6-1.1-0.3c-0.4,0.2-0.6,0.7-0.3,1.1c0.2,0.3,0.3,0.7,0.5,1.2C18.9,33.1,19.3,33.4,19.6,33.4z"/>
								<path id="Path_20_" d="M15.6,29.9c0.5,0.1,1,0.2,1.3,0.3c0.1,0,0.2,0.1,0.3,0.1c0.3,0,0.6-0.2,0.8-0.5
									c0.2-0.4,0-0.9-0.4-1.1c-0.5-0.2-1.2-0.4-1.8-0.5c-0.5,0-0.9,0.3-0.9,0.7C14.9,29.4,15.2,29.8,15.6,29.9L15.6,29.9z"/>
								<path id="Path_21_" d="M11.5,31c0.1,0.1,0.3,0.1,0.5,0.1c0.3,0,0.5-0.1,0.7-0.3c0.2-0.3,0.5-0.5,0.9-0.7
									c0.4-0.2,0.6-0.6,0.5-1.1c-0.2-0.4-0.6-0.6-1.1-0.5c-0.7,0.3-1.3,0.7-1.7,1.3C11,30.2,11.1,30.7,11.5,31L11.5,31z"/>
								<path id="Shape" d="M38.2,43.9c0-0.4,0.1-0.9,0.1-1.4c0-0.5-0.3-0.8-0.8-0.9c-0.5,0-0.8,0.3-0.9,0.8c0,0.5-0.1,1-0.1,1.4
									c-0.1,0.8-0.1,1.6-0.3,2.4c-0.1,0.6-0.4,1.1-0.6,1.7c-1.2,2.3-3.2,4-5.9,5.1c-3,1.2-6,1.5-8.1,1.5c-2.1,0-5.1-0.3-8.1-1.5
									c-2.8-1.1-4.8-2.9-5.9-5.1c-0.3-0.5-0.5-1.1-0.6-1.7c-0.2-0.8-0.3-1.6-0.3-2.4C6.4,42.8,6.4,42,6.4,41
									c-0.1-1.9-0.2-3.9-0.6-5.7c0.2-0.2,0.3-0.4,0.4-0.6c0.9-3.2,1.8-5.6,3.7-7.9c1.7-2,3.9-3.5,6.4-4.6l0.1,0
									c0.9-0.4,2.1-0.9,3.2-1.6c2.2,1.2,4,1.9,4.1,1.9c3.6,1.3,8.5,3.8,11.4,8c1.7,2.5,2,4.4,2,4.5c0,0,0,0.1,0,0.1
									c0.1,0.3,0.2,0.5,0.3,0.6c-0.2,0.8-0.3,1.7-0.4,2.7c0,0.5,0.3,0.8,0.8,0.9c0.5,0,0.9-0.3,0.9-0.7c0.1-0.9,0.2-1.7,0.3-2.5
									c0.4-0.2,0.7-0.4,0.9-0.6c2.8-2.5,2.4-10.6,2.3-11.6c-0.4-5-2-7.5-3.7-10.3c-0.2-0.3-0.4-0.6-0.6-0.9
									c-0.1-0.1-0.1-0.3-0.1-0.4l0.2-0.8c0.2-0.6,0.1-1.2-0.2-1.7c-1.8-2.8-4-5.2-6.7-7.2c-3.6-2.6-8.2-3.4-12.4-2.2
									c-3.7,1.1-5.6,3.3-6.5,4.9c-1,1.7-1.2,3.1-1.2,3.4c-0.1,0.7-0.1,1.4-0.1,2.1c-1.3,0.4-2.5,0.9-3.6,1.6
									c-1.8,1.2-2.3,2.3-2.4,4.3c0,0,0,0,0,0c0,0,0,0,0,0.1c0,0.3,0,0.5,0,0.8c0,0,0,0,0,0.1c0,0,0,0,0,0c-0.9-0.3-1.8,0-2.4,0.8
									c-0.6,0.7-1,1.9-1.3,3.6c-0.1,0.4,0.2,0.9,0.7,0.9c0.4,0.1,0.9-0.2,1-0.7c0.3-1.8,0.7-2.6,1-2.9c0.3-0.4,0.4-0.3,0.5-0.3
									c0.2,0.1,0.4,0.1,0.6,0.1c0.1,1.3,0.2,2.7,0.5,3.9c0.1,0.4,0.4,0.6,0.8,0.6c0.1,0,0.1,0,0.2,0c0.4-0.1,0.7-0.5,0.6-1
									c-0.5-2.1-0.5-6-0.5-6c0,0,0,0,0,0c0.1-1.6,0.4-2.1,1.7-3c0.9-0.6,1.9-1.1,3-1.4c0.8,2.3,2.7,4.5,5.6,6.5
									c0.3,0.2,0.7,0.5,1,0.7c-0.8,0.4-1.6,0.7-2.2,1l-0.1,0c-2.7,1.1-5.2,2.9-7,5c-2.3,2.7-3.3,5.7-4,8.3
									c-0.9-1.3-1.4-2.4-1.7-3.6c-0.3-1.3-0.4-2.7-0.4-4.2c0-0.5-0.4-0.8-0.8-0.8c-0.5,0-0.8,0.4-0.8,0.8c0,1.6,0.1,3.1,0.4,4.5
									c0.3,1.5,1,2.9,2.1,4.4c0.2,0.3,0.5,0.5,0.8,0.6c0.3,1.7,0.4,3.5,0.5,5.3c0,0.9,0.1,1.9,0.2,2.8C5,44.7,5,45.6,5.3,46.5
									c0.2,0.7,0.4,1.4,0.8,2c1.4,2.6,3.6,4.6,6.8,5.9c3.2,1.3,6.5,1.6,8.7,1.6s5.5-0.3,8.7-1.6c3.1-1.3,5.4-3.3,6.8-5.9
									c0.3-0.7,0.6-1.3,0.8-2C38.1,45.6,38.1,44.7,38.2,43.9z M12.6,9.1C12.6,9.1,12.6,9.1,12.6,9.1c0-0.1,0.4-4,4.5-6.2
									c1.3,2.1,3.7,3.3,6.1,4.3c2,0.9,4.6,2,5.7,4c0.1,0.3,0.4,0.4,0.7,0.4c0.1,0,0.3,0,0.4-0.1c0.4-0.2,0.6-0.7,0.3-1.1
									c-1.4-2.6-4.2-3.8-6.5-4.8c-2.1-0.9-4.1-1.9-5.2-3.4c0.2-0.1,0.3-0.1,0.5-0.2c1.1-0.3,2.3-0.5,3.4-0.5
									c2.6,0,5.3,0.8,7.5,2.4c2.5,1.8,4.6,4,6.2,6.7c0.1,0.1,0.1,0.3,0.1,0.4l-0.2,0.8c-0.1,0.6-0.1,1.2,0.2,1.7
									c0.2,0.3,0.4,0.6,0.6,0.9c1.7,2.7,3.1,5,3.4,9.6c0.1,2.3,0.1,8.5-1.8,10.2c0,0,0,0,0,0c0,0-0.1,0-0.1,0.1
									c-0.2-0.8-0.7-2.6-2.1-4.7c-3.2-4.6-8.4-7.2-12.2-8.7C24.1,21,11.4,16.2,12.6,9.1L12.6,9.1z"/>
							</g>
						</g>
					</g>
				</g>
			</g>
		</g>
	</g>
</g>
</svg>
