<?xml version="1.0" encoding="utf-8"?>
<!-- Generator: Adobe Illustrator 25.0.0, SVG Export Plug-In . SVG Version: 6.00 Build 0)  -->
<svg version="1.1" id="Layer_1" xmlns="http://www.w3.org/2000/svg" xmlns:xlink="http://www.w3.org/1999/xlink" x="0px" y="0px"
	 viewBox="0 0 80 80" style="enable-background:new 0 0 80 80;" xml:space="preserve">
<style type="text/css">
	.st0{fill-rule:evenodd;clip-rule:evenodd;fill:url(#path-2_3_);}
	.st1{filter:url(#Adobe_OpacityMaskFilter);}
	.st2{fill-rule:evenodd;clip-rule:evenodd;fill:#FFFFFF;}
	.st3{mask:url(#mask-3_1_);}
</style>
<desc>Created with Sketch.</desc>
<g id="Design">
	<g id="cpa-97_design" transform="translate(-1181.000000, -991.000000)">
		<g id="_x2705_-art1" transform="translate(0.000000, 724.000000)">
			<g id="content" transform="translate(160.000000, 267.000000)">
				<g id="_x38_" transform="translate(1001.000000, 0.000000)">
					<g id="a1-8" transform="translate(20.000000, 0.000000)">
						<g id="Rectangle">
							
								<linearGradient id="path-2_3_" gradientUnits="userSpaceOnUse" x1="-518.6599" y1="740.8588" x2="-519.1988" y2="740.0743" gradientTransform="matrix(80 0 0 -80 41554 59277.8281)">
								<stop  offset="0" style="stop-color:#9071EC"/>
								<stop  offset="1" style="stop-color:#354DCF"/>
							</linearGradient>
							<path id="path-2_1_" class="st0" d="M6,0h68c3.3,0,6,2.7,6,6v68c0,3.3-2.7,6-6,6H6c-3.3,0-6-2.7-6-6V6C0,2.7,2.7,0,6,0z"/>
						</g>
						<defs>
							<filter id="Adobe_OpacityMaskFilter" filterUnits="userSpaceOnUse" x="25" y="15" width="30" height="50">
								<feColorMatrix  type="matrix" values="1 0 0 0 0  0 1 0 0 0  0 0 1 0 0  0 0 0 1 0"/>
							</filter>
						</defs>
						<mask maskUnits="userSpaceOnUse" x="25" y="15" width="30" height="50" id="mask-3_1_">
							<g class="st1">
								<path id="path-2_2_" class="st2" d="M6,0h68c3.3,0,6,2.7,6,6v68c0,3.3-2.7,6-6,6H6c-3.3,0-6-2.7-6-6V6C0,2.7,2.7,0,6,0z"/>
							</g>
						</mask>
						<g id="beauty" class="st3">
							<g transform="translate(25.000000, 15.000000)">
								<path id="Path" d="M13.1,25.1c-0.4,0-0.7,0.3-0.7,0.7c0,0.4-0.3,0.8-0.8,0.8c-0.4,0-0.8-0.3-0.8-0.8c0-0.4-0.3-0.7-0.7-0.7
									c-0.4,0-0.7,0.3-0.7,0.7c0,1.2,1,2.2,2.2,2.2c1.2,0,2.2-1,2.2-2.2C13.8,25.5,13.5,25.1,13.1,25.1z"/>
								<path id="Path_1_" d="M18.4,28.1c1.2,0,2.2-1,2.2-2.2c0-0.4-0.3-0.7-0.7-0.7c-0.4,0-0.7,0.3-0.7,0.7c0,0.4-0.3,0.8-0.8,0.8
									c-0.4,0-0.8-0.3-0.8-0.8c0-0.4-0.3-0.7-0.7-0.7c-0.4,0-0.7,0.3-0.7,0.7C16.2,27.1,17.1,28.1,18.4,28.1z"/>
								<path id="Path_2_" d="M6.7,27.3c0-0.4-0.4-0.7-0.8-0.7c-0.4,0-0.7,0.4-0.7,0.8c0,0.6,0.2,1.2,0.6,1.7
									c0.1,0.2,0.4,0.3,0.6,0.3c0.1,0,0.3,0,0.4-0.1c0.3-0.2,0.4-0.7,0.2-1C6.8,27.9,6.7,27.6,6.7,27.3z"/>
								<path id="Path_3_" d="M12.3,28.8c-0.3,0.3-0.6,0.5-0.9,0.7c-0.3,0.2-0.5,0.6-0.3,1c0.1,0.2,0.4,0.4,0.6,0.4
									c0.1,0,0.2,0,0.4-0.1c0.4-0.2,0.7-0.5,1.1-0.8c0.3-0.3,0.3-0.7,0.1-1C13,28.6,12.6,28.5,12.3,28.8L12.3,28.8z"/>
								<path id="Path_4_" d="M9.7,29.8c-0.4-0.1-0.8-0.2-1.2-0.4c-0.4-0.2-0.8,0-1,0.3c-0.2,0.4,0,0.8,0.3,1
									c0.5,0.3,1.1,0.4,1.6,0.5c0,0,0.1,0,0.1,0c0.4,0,0.7-0.3,0.7-0.6C10.3,30.3,10.1,29.9,9.7,29.8z"/>
								<path id="Path_5_" d="M18.7,29.5c-0.3-0.2-0.6-0.4-0.9-0.7c-0.3-0.3-0.8-0.2-1,0.1c-0.3,0.3-0.2,0.8,0.1,1
									c0.4,0.3,0.8,0.6,1.1,0.8c0.1,0.1,0.2,0.1,0.4,0.1c0.3,0,0.5-0.1,0.6-0.4C19.2,30.1,19.1,29.7,18.7,29.5z"/>
								<path id="Path_6_" d="M21.6,29.4c-0.4,0.2-0.8,0.3-1.2,0.4c-0.4,0.1-0.7,0.4-0.6,0.8c0.1,0.4,0.4,0.6,0.7,0.6
									c0,0,0.1,0,0.1,0c0.5-0.1,1.1-0.3,1.6-0.5c0.4-0.2,0.5-0.6,0.3-1C22.4,29.4,21.9,29.3,21.6,29.4L21.6,29.4z"/>
								<path id="Path_7_" d="M24.1,26.6c-0.4,0-0.7,0.3-0.8,0.7c0,0.3-0.1,0.6-0.4,1c-0.2,0.3-0.2,0.8,0.2,1
									c0.1,0.1,0.3,0.1,0.4,0.1c0.2,0,0.4-0.1,0.6-0.3c0.4-0.6,0.6-1.1,0.6-1.7C24.8,27,24.5,26.6,24.1,26.6L24.1,26.6z"/>
								<path id="Path_8_" d="M13.1,17.9c-0.4,0-0.7,0.3-0.7,0.7v0.7c0,0.4,0.3,0.7,0.7,0.7c0.4,0,0.7-0.3,0.7-0.7v-0.7
									C13.9,18.2,13.5,17.9,13.1,17.9z"/>
								<path id="Path_9_" d="M13.1,20.8c-0.4,0-0.7,0.3-0.7,0.7V23c0,0.4,0.3,0.7,0.7,0.7c0.4,0,0.7-0.3,0.7-0.7v-1.5
									C13.9,21.1,13.5,20.8,13.1,20.8z"/>
								<path id="Path_10_" d="M16.9,23.7c0.4,0,0.7-0.3,0.7-0.7v-1.5c0-0.4-0.3-0.7-0.7-0.7c-0.4,0-0.7,0.3-0.7,0.7V23
									C16.2,23.4,16.5,23.7,16.9,23.7z"/>
								<path id="Path_11_" d="M16.9,20c0.4,0,0.7-0.3,0.7-0.7v-0.7c0-0.4-0.3-0.7-0.7-0.7c-0.4,0-0.7,0.3-0.7,0.7v0.7
									C16.2,19.7,16.5,20,16.9,20z"/>
								<path id="Shape" d="M26.5,42.8L20,40c-0.4-0.2-0.6-0.5-0.6-0.9v-1c2.7-1.4,4.8-3.4,6.3-6.2c0.9-1.7,1.5-3.5,1.9-5.6
									c0.3-0.1,0.5-0.3,0.5-0.4c2.1-1.9,1.8-7.8,1.7-8.5c0-0.6-0.1-1.3-0.2-1.8c-0.1-0.4-0.5-0.7-0.8-0.6
									c-0.4,0.1-0.7,0.5-0.6,0.9c0.1,0.5,0.2,1.1,0.2,1.7c0.1,2.2-0.1,6-1.1,7.2C26.8,23,25,18.2,17,15.2c0,0-2.4-0.9-4.5-2.4
									c-2.7-1.9-4-4-3.6-6c0,0,0,0,0-0.1c0-0.1,0.3-2.7,3-4.2c1,1.5,2.6,2.3,4.3,3c1.8,0.8,3.3,1.5,4,2.8c0.1,0.2,0.4,0.4,0.6,0.4
									c0.1,0,0.2,0,0.3-0.1c0.4-0.2,0.5-0.6,0.3-1c-1-1.9-3.1-2.8-4.7-3.5c-1.4-0.6-2.7-1.3-3.5-2.3c0.1,0,0.1,0,0.2-0.1
									C15.9,1,18.8,1.6,21,3.2c1.8,1.3,3.2,2.9,4.4,4.8c0,0.1,0,0.1,0,0.2l-0.1,0.6c-0.1,0.4,0,0.9,0.2,1.3
									c0.1,0.2,0.3,0.5,0.4,0.7c0.4,0.7,0.9,1.4,1.2,2.1c0.2,0.4,0.6,0.5,1,0.3s0.5-0.6,0.3-1c-0.4-0.8-0.8-1.5-1.3-2.3
									c-0.1-0.2-0.3-0.4-0.4-0.7c0-0.1,0-0.1,0-0.2l0.1-0.6c0.1-0.4,0-0.9-0.2-1.3c-1.3-2.1-2.9-3.8-4.8-5.2
									C19.3,0.1,16-0.5,13,0.4C8,1.9,7.4,6.1,7.4,6.5C7.3,7,7.3,7.5,7.3,7.9C6.4,8.2,5.6,8.6,4.9,9.1c-1.3,0.9-1.7,1.7-1.8,3.2
									c0,0,0,0,0,0c0,0,0,0,0,0c0,0.1,0,0.3,0,0.5c-0.6-0.2-1.3,0.1-1.7,0.7c-0.4,0.5-1,1.8-1.2,5c-0.1,1.4,0,2.7,0.3,3.9
									c0.2,1.1,0.7,2.1,1.5,3.2c0.1,0.2,0.3,0.3,0.5,0.4c0.4,2.2,1,4.1,1.9,5.8c1.5,2.7,3.6,4.8,6.3,6.2v1c0,0.4-0.2,0.8-0.6,0.9
									L9.9,40c-0.4,0.2-0.5,0.6-0.4,1c0.2,0.4,0.6,0.5,1,0.4l0.1-0.1c0.9-0.4,1.5-1.3,1.5-2.3v-0.3C13,39,14,39.2,15,39.2
									c1,0,2-0.2,2.9-0.5V39c0,1,0.6,1.9,1.5,2.3l6.5,2.8c1.1,0.5,1.8,1.5,1.8,2.7v1.7H2.3v-1.7c0-1.2,0.7-2.2,1.8-2.7l3.3-1.4
									c0.4-0.2,0.5-0.6,0.4-1c-0.2-0.4-0.6-0.5-1-0.4l-3.3,1.4c-1.6,0.7-2.6,2.3-2.6,4v2.5c0,0.4,0.3,0.7,0.7,0.7h26.8
									c0.4,0,0.7-0.3,0.7-0.7v-2.5C29.1,45,28.1,43.5,26.5,42.8L26.5,42.8z M1.9,22.1c-0.2-1.1-0.3-2.3-0.3-3.5
									c0.1-2,0.4-3.6,0.9-4.2c0.1-0.1,0.1-0.2,0.2-0.2c0,0,0,0,0,0c0.1,0,0.2,0.1,0.4,0.1c0,0.9,0.1,1.9,0.3,2.7
									c0.1,0.3,0.4,0.6,0.7,0.6c0.1,0,0.1,0,0.2,0c0.4-0.1,0.6-0.5,0.5-0.9c-0.4-1.5-0.3-4.3-0.3-4.3c0,0,0,0,0,0
									c0-1.1,0.3-1.4,1.1-2c0.6-0.4,1.2-0.7,2-0.9c0.8,2.1,2.6,3.8,4.5,5c-0.5,0.2-1,0.4-1.3,0.6l-0.1,0c-2,0.8-3.7,2.1-5,3.7
									c-1.5,1.9-2.3,3.9-2.8,5.8C2.4,23.6,2.1,22.9,1.9,22.1z M17.6,37.2c-1.7,0.7-3.5,0.7-5.2,0c-3-1.2-5.2-3.2-6.7-6.1
									c-0.8-1.6-1.4-3.4-1.8-5.4c0.2-0.2,0.3-0.4,0.3-0.6c0.6-2.3,1.3-4,2.6-5.6c1.2-1.4,2.7-2.5,4.5-3.3l0.1,0
									c0.6-0.3,1.5-0.6,2.2-1.1c1.5,0.8,2.7,1.3,2.9,1.4c2.5,0.9,5.9,2.7,8,5.7c1.2,1.8,1.4,3.2,1.4,3.2c0,0,0,0.1,0,0.1
									c0,0.2,0.1,0.4,0.2,0.5c-0.3,1.9-0.9,3.6-1.7,5.2C22.8,34,20.6,36.1,17.6,37.2z"/>
								<path id="Path_12_" d="M30,35.3l-0.2-2.7c0-0.2-0.2-0.5-0.4-0.6c-0.2-0.1-0.5-0.1-0.7,0l-2.5,1.4c-0.4,0.2-0.5,0.6-0.3,1
									c0.2,0.4,0.6,0.5,1,0.3l0.3-0.2c-1.2,2.1-2.8,3-2.8,3c-0.3,0.2-0.5,0.7-0.3,1c0.1,0.2,0.4,0.4,0.6,0.4c0.1,0,0.2,0,0.4-0.1
									c0.1-0.1,2-1.2,3.4-3.7l0,0.3c0,0.4,0.3,0.7,0.7,0.7c0,0,0,0,0.1,0C29.7,36.1,30,35.7,30,35.3L30,35.3z"/>
								<path id="Path_13_" d="M1.4,35.4l0-0.3c1.5,2.6,3.3,3.7,3.4,3.7c0.1,0.1,0.2,0.1,0.4,0.1c0.2,0,0.5-0.1,0.6-0.4
									c0.2-0.3,0.1-0.8-0.3-1c0,0-1.6-0.9-2.8-3l0.3,0.2c0.4,0.2,0.8,0.1,1-0.3c0.2-0.4,0.1-0.8-0.3-1L1.3,32
									c-0.2-0.1-0.5-0.1-0.7,0c-0.2,0.1-0.4,0.3-0.4,0.6L0,35.3c0,0.4,0.3,0.8,0.7,0.8c0,0,0,0,0.1,0C1.1,36.1,1.4,35.8,1.4,35.4
									L1.4,35.4z"/>
							</g>
						</g>
					</g>
				</g>
			</g>
		</g>
	</g>
</g>
</svg>
