<svg id="Layer_1" data-name="Layer 1" xmlns="http://www.w3.org/2000/svg" xmlns:xlink="http://www.w3.org/1999/xlink" width="102" height="102" viewBox="0 0 102 102"><defs><style>.cls-1{fill:url(#linear-gradient);}.cls-2{fill-rule:evenodd;}</style><linearGradient id="linear-gradient" x1="-509.18" y1="753.77" x2="-509.72" y2="752.98" gradientTransform="matrix(102, 0, 0, -102, 52015, 76895.93)" gradientUnits="userSpaceOnUse"><stop offset="0" stop-color="#9071ec"/><stop offset="1" stop-color="#354dcf"/></linearGradient></defs><circle id="Oval" class="cls-1" cx="51.49" cy="51.22" r="51"/><path d="M33.71,69.48v7.29H31.59V71.21h-3v5.56h-2.1V69.48Z"/><path d="M37.08,76.39a3.6,3.6,0,0,1-1.43-1.33,3.93,3.93,0,0,1,0-3.87,3.62,3.62,0,0,1,1.43-1.34,4.68,4.68,0,0,1,4.13,0,3.7,3.7,0,0,1,0,6.54,4.68,4.68,0,0,1-4.13,0Zm3.4-1.8A2,2,0,0,0,41,73.12a2,2,0,0,0-.52-1.47,1.77,1.77,0,0,0-1.33-.54,1.79,1.79,0,0,0-1.34.54,2.05,2.05,0,0,0-.53,1.47,2,2,0,0,0,.53,1.47,1.76,1.76,0,0,0,1.34.55A1.74,1.74,0,0,0,40.48,74.59Z"/><path d="M50.73,69.84A3.43,3.43,0,0,1,52,71.15a4.36,4.36,0,0,1,0,3.94,3.39,3.39,0,0,1-1.31,1.32,3.73,3.73,0,0,1-1.85.46A2.79,2.79,0,0,1,46.69,76v3.4H44.58V69.48h2v.84a2.82,2.82,0,0,1,2.29-.95A3.74,3.74,0,0,1,50.73,69.84Zm-.88,4.75a2,2,0,0,0,.52-1.47,2,2,0,0,0-.52-1.47,1.92,1.92,0,0,0-2.67,0,2,2,0,0,0-.52,1.47,2,2,0,0,0,.52,1.47,1.9,1.9,0,0,0,2.67,0Z"/><path d="M62.19,75v3.33h-2V76.77H54V69.48h2.1V75H59V69.48h2.11V75Z"/><path d="M63.51,69.48h2.1v4.33l3.55-4.33H71.1v7.29H69V72.43l-3.54,4.34H63.51Z"/><path d="M79.6,69.48v7.29H77.71V74.68H76.16l-1.38,2.09H72.53l1.67-2.39A2.42,2.42,0,0,1,73,73.52a2.26,2.26,0,0,1-.4-1.36,2.33,2.33,0,0,1,.93-2,4.09,4.09,0,0,1,2.55-.7Zm-4.46,2a1.09,1.09,0,0,0,0,1.58,1.65,1.65,0,0,0,1,.25h1.58V71.2H76.16A1.79,1.79,0,0,0,75.14,71.44Z"/><path class="cls-2" d="M31.1,40.79h0c0,6.43,9.12,11.65,20.38,11.65s20.38-5.22,20.38-11.65V48.2c0,17.87-40.77,17.87-40.77,0Z"/><path class="cls-2" d="M51.49,22.2c11,0,19.91,5.78,19.91,12.92,0,3.31-1.92,6.33-5.07,8.61L39.17,25A27.23,27.23,0,0,1,51.49,22.2Z"/><path class="cls-2" d="M61.48,46.3a28.39,28.39,0,0,1-10,1.74c-11,0-19.91-5.78-19.91-12.92A10,10,0,0,1,34.92,28Z"/></svg>