<svg id="Layer_1" data-name="Layer 1" xmlns="http://www.w3.org/2000/svg" xmlns:xlink="http://www.w3.org/1999/xlink" width="102" height="102" viewBox="0 0 102 102"><defs><style>.cls-1{fill:url(#linear-gradient);}</style><linearGradient id="linear-gradient" x1="-509.18" y1="753.77" x2="-509.72" y2="752.98" gradientTransform="matrix(102, 0, 0, -102, 52014.51, 76895.71)" gradientUnits="userSpaceOnUse"><stop offset="0" stop-color="#9071ec"/><stop offset="1" stop-color="#354dcf"/></linearGradient></defs><g id="Design"><g id="cpa-97_design" data-name="cpa-97 design"><g id="_-art14" data-name="✅-art14"><g id="content"><g id="_1" data-name="1"><g id="Group-11"><g id="a14-1"><path id="капсула" d="M81.74,75v8" transform="translate(-0.49 -0.22)"/></g></g></g></g></g></g></g><circle id="Oval" class="cls-1" cx="51" cy="51" r="51"/><path d="M37.85,69.84a3.37,3.37,0,0,1,1.31,1.31,4.36,4.36,0,0,1,0,3.94,3.33,3.33,0,0,1-1.31,1.32,3.7,3.7,0,0,1-1.84.46,2.83,2.83,0,0,1-2.2-.88v3.4H31.7V69.48h2v.84A2.8,2.8,0,0,1,36,69.37,3.7,3.7,0,0,1,37.85,69.84ZM37,74.59a2,2,0,0,0,.53-1.47A2.05,2.05,0,0,0,37,71.65a1.91,1.91,0,0,0-2.66,0,2,2,0,0,0-.52,1.47,2,2,0,0,0,.52,1.47,1.88,1.88,0,0,0,2.66,0Z" transform="translate(-0.49 -0.22)"/><path d="M46.42,70.18a3.1,3.1,0,0,1,.9,2.43v4.16h-2v-.91a2.37,2.37,0,0,1-2.22,1,3.46,3.46,0,0,1-1.46-.28,2.16,2.16,0,0,1-.94-.79,2,2,0,0,1-.32-1.13,1.9,1.9,0,0,1,.76-1.6,3.89,3.89,0,0,1,2.36-.58h1.68a1.36,1.36,0,0,0-.42-1.07,1.89,1.89,0,0,0-1.26-.37,3.72,3.72,0,0,0-1.14.18,3.22,3.22,0,0,0-1,.5l-.75-1.48a4.65,4.65,0,0,1,1.42-.65,6.6,6.6,0,0,1,1.72-.23A3.78,3.78,0,0,1,46.42,70.18Zm-1.8,5a1.37,1.37,0,0,0,.59-.74v-.74H43.76c-.86,0-1.3.28-1.3.85a.78.78,0,0,0,.32.65,1.47,1.47,0,0,0,.87.23A1.82,1.82,0,0,0,44.62,75.2Z" transform="translate(-0.49 -0.22)"/><path d="M54.83,73.6a1.48,1.48,0,0,1,.36,1,1.73,1.73,0,0,1-.48,1.21,3,3,0,0,1-1.29.81,5.74,5.74,0,0,1-1.87.28,7.86,7.86,0,0,1-1.68-.18,6.27,6.27,0,0,1-1.53-.52l.57-1.48a5.74,5.74,0,0,0,2.54.56,2.5,2.5,0,0,0,1.17-.23.69.69,0,0,0,.43-.63.58.58,0,0,0-.3-.53,1.69,1.69,0,0,0-.86-.18H50.4V72.39h1.3a1.77,1.77,0,0,0,.85-.17.57.57,0,0,0,.3-.52.6.6,0,0,0-.38-.54A2.31,2.31,0,0,0,51.41,71a6.29,6.29,0,0,0-2.3.5L48.6,70a7.35,7.35,0,0,1,2.95-.66,6,6,0,0,1,1.76.24,2.84,2.84,0,0,1,1.23.71,1.53,1.53,0,0,1,.13,2,2.21,2.21,0,0,1-.85.66A2.1,2.1,0,0,1,54.83,73.6Z" transform="translate(-0.49 -0.22)"/><path d="M62.15,70.18a3.1,3.1,0,0,1,.9,2.43v4.16h-2v-.91a2.37,2.37,0,0,1-2.22,1,3.46,3.46,0,0,1-1.46-.28,2.16,2.16,0,0,1-.94-.79,2.07,2.07,0,0,1-.32-1.13,1.9,1.9,0,0,1,.76-1.6,3.89,3.89,0,0,1,2.36-.58h1.68a1.36,1.36,0,0,0-.42-1.07,1.89,1.89,0,0,0-1.26-.37,3.72,3.72,0,0,0-1.14.18,3.17,3.17,0,0,0-.95.5l-.76-1.48a4.6,4.6,0,0,1,1.43-.65,6.47,6.47,0,0,1,1.71-.23A3.78,3.78,0,0,1,62.15,70.18Zm-1.8,5a1.33,1.33,0,0,0,.59-.74v-.74H59.49c-.86,0-1.3.28-1.3.85a.78.78,0,0,0,.32.65,1.51,1.51,0,0,0,.88.23A1.81,1.81,0,0,0,60.35,75.2Z" transform="translate(-0.49 -0.22)"/><path d="M75.58,74.69a1.77,1.77,0,0,1-.75,1.53,3.78,3.78,0,0,1-2.22.55H68.73V69.48h3.72a4,4,0,0,1,2.14.5,1.56,1.56,0,0,1,.77,1.38,1.64,1.64,0,0,1-.28,1,1.81,1.81,0,0,1-.79.64A1.7,1.7,0,0,1,75.58,74.69Zm-4.92-2.22h1.6q1.11,0,1.11-.78c0-.52-.37-.77-1.11-.77h-1.6Zm2.94,2.06a.7.7,0,0,0-.27-.61,1.4,1.4,0,0,0-.85-.2H70.66v1.61h1.78C73.21,75.33,73.6,75.06,73.6,74.53Z" transform="translate(-0.49 -0.22)"/><path d="M44.7,89v3.31h-2V90.77H37.62v1.57h-2V89H36a1,1,0,0,0,.93-.8A9,9,0,0,0,37.22,86l.09-2.52h6.35V89ZM39,88A2.09,2.09,0,0,1,38.48,89h3.07V85.21H39.17l0,.94A14.52,14.52,0,0,1,39,88Z" transform="translate(-0.49 -0.22)"/><path d="M53.07,87.72H47.56a1.71,1.71,0,0,0,.7,1.07,2.35,2.35,0,0,0,1.39.39,2.83,2.83,0,0,0,1-.17,2.36,2.36,0,0,0,.82-.53L52.6,89.7a3.8,3.8,0,0,1-3,1.17,4.76,4.76,0,0,1-2.18-.48A3.49,3.49,0,0,1,46,89.06a3.89,3.89,0,0,1,0-3.87,3.61,3.61,0,0,1,1.4-1.34,4.08,4.08,0,0,1,2-.48,4.17,4.17,0,0,1,1.94.46,3.45,3.45,0,0,1,1.36,1.32,4,4,0,0,1,.49,2S53.1,87.37,53.07,87.72Zm-4.94-2.34a1.74,1.74,0,0,0-.6,1.11h3.59a1.75,1.75,0,0,0-.6-1.11,1.95,1.95,0,0,0-2.39,0Z" transform="translate(-0.49 -0.22)"/><path d="M54.74,83.48h2.09v2.84H60V83.48h2.11v7.29H60V88H56.83v2.73H54.74Z" transform="translate(-0.49 -0.22)"/><path d="M70.25,86.45A2.21,2.21,0,0,1,71,88.23a2.28,2.28,0,0,1-.85,1.88,3.71,3.71,0,0,1-2.37.67H64.13V83.48h2.1v2.33h1.84A3.39,3.39,0,0,1,70.25,86.45ZM68.53,89a1,1,0,0,0,.32-.81.91.91,0,0,0-.31-.77,1.57,1.57,0,0,0-.94-.26l-1.37,0v2.12H67.6A1.43,1.43,0,0,0,68.53,89Z" transform="translate(-0.49 -0.22)"/><path d="M68.92,55V62.7H38.2V56.61L53.88,41.8a16.59,16.59,0,0,0,3.36-4.1,7.32,7.32,0,0,0,.88-3.39,4.51,4.51,0,0,0-1.66-3.75,7.7,7.7,0,0,0-4.85-1.3,11.09,11.09,0,0,0-4.82,1,9.33,9.33,0,0,0-3.6,3.05l-6.85-4.41a16.12,16.12,0,0,1,6.56-5.55,22,22,0,0,1,9.58-2,19.69,19.69,0,0,1,7.93,1.48A12.2,12.2,0,0,1,65.69,27a10.81,10.81,0,0,1,1.89,6.36,14.12,14.12,0,0,1-1.39,6.21,23.93,23.93,0,0,1-5.4,6.62L51.44,55Z" transform="translate(-0.49 -0.22)"/></svg>