<?xml version="1.0" encoding="utf-8"?>
<!-- Generator: Adobe Illustrator 25.0.0, SVG Export Plug-In . SVG Version: 6.00 Build 0)  -->
<svg version="1.1" id="Layer_1" xmlns="http://www.w3.org/2000/svg" xmlns:xlink="http://www.w3.org/1999/xlink" x="0px" y="0px"
	 viewBox="0 0 109 102" style="enable-background:new 0 0 109 102;" xml:space="preserve">
<style type="text/css">
	.st0{opacity:0.4;fill-rule:evenodd;clip-rule:evenodd;fill:url(#Oval_1_);enable-background:new    ;}
</style>
<g id="Design">
	<g id="cpa-97_design" transform="translate(-231.000000, -1316.000000)">
		<g id="_x2705_-art2" transform="translate(160.000000, 1174.000000)">
			<g id="content" transform="translate(0.000000, 102.000000)">
				<g id="_x31_">
					<g id="a2-1" transform="translate(71.000000, 40.000000)">
						
							<linearGradient id="Oval_1_" gradientUnits="userSpaceOnUse" x1="97.2306" y1="82.0628" x2="26.4306" y2="28.6628" gradientTransform="matrix(1 0 0 -1 0 101.8898)">
							<stop  offset="0" style="stop-color:#9071EC"/>
							<stop  offset="1" style="stop-color:#354DCF"/>
						</linearGradient>
						<circle id="Oval" class="st0" cx="55.9" cy="51" r="30.6"/>
						<path id="людей" d="M45.7,66v4.8h-1.2v-3.6h-1.3v1.6c0,1.5-0.7,2.2-2,2v-1.2c0.3,0.1,0.5,0,0.6-0.1
							c0.1-0.2,0.2-0.4,0.2-0.8V66H45.7z M51.2,65.9c0.7,0,1.3,0.2,1.8,0.7s0.7,1.1,0.7,1.8s-0.2,1.3-0.7,1.8s-1.1,0.7-1.8,0.7
							c-0.6,0-1.1-0.2-1.6-0.5c-0.4-0.4-0.7-0.8-0.9-1.4H48v1.8h-1.2V66H48v1.8h0.7c0.1-0.6,0.4-1,0.9-1.4
							C50.1,66,50.6,65.9,51.2,65.9z M50.2,69.4c0.2,0.2,0.6,0.4,0.9,0.4c0.4,0,0.7-0.1,0.9-0.4c0.2-0.2,0.4-0.6,0.4-1
							s-0.1-0.7-0.4-1c-0.2-0.2-0.6-0.4-0.9-0.4c-0.4,0-0.7,0.1-0.9,0.4c-0.2,0.2-0.4,0.6-0.4,1C49.9,68.8,50,69.1,50.2,69.4z
							 M58.9,69.6h0.6V72h-1.2v-1.3h-3V72h-1.2v-2.4h0.6c0.3-0.4,0.4-1,0.4-1.7V66h3.8C58.9,66,58.9,69.6,58.9,69.6z M56.1,69.6h1.6
							v-2.5h-1.3v0.8C56.4,68.6,56.3,69.2,56.1,69.6z M61.4,68.9c0.2,0.6,0.6,0.9,1.4,0.9c0.5,0,0.8-0.2,1.1-0.5l1,0.6
							c-0.5,0.7-1.2,1-2.1,1c-0.8,0-1.4-0.2-1.9-0.7s-0.7-1.1-0.7-1.8c0-0.7,0.2-1.3,0.7-1.8s1.1-0.7,1.8-0.7s1.3,0.2,1.7,0.7
							c0.5,0.5,0.7,1.1,0.7,1.8c0,0.2,0,0.3,0,0.5H61.4z M61.4,67.9h2.4c-0.1-0.3-0.2-0.6-0.4-0.7C63.2,67,62.9,67,62.6,67
							s-0.6,0.1-0.8,0.3C61.6,67.4,61.4,67.6,61.4,67.9z M66.7,65.4v-1.1h2.8v1.1H66.7z M69.4,66h0.9v4.8h-1.2v-2.7l-2.3,2.7h-0.9
							V66h1.2v2.7L69.4,66z"/>
						<path id="_x36_3_x25_" d="M37.1,43c2.1,0.1,3.7,0.7,5.1,2c1.3,1.3,1.9,2.9,1.9,4.9c0,2.1-0.7,3.7-2.1,5c-1.3,1.3-3.1,2-5.2,2
							s-3.9-0.6-5.2-1.9c-1.3-1.3-2-3-2-5.1c0-1.5,0.4-2.8,1.2-4l6.2-9.3h4.5L37.1,43z M34.4,52.3c0.6,0.6,1.4,0.9,2.4,0.9
							s1.7-0.3,2.4-0.9c0.6-0.6,0.9-1.3,0.9-2.4c0-0.9-0.3-1.7-0.9-2.4c-0.6-0.6-1.4-0.9-2.4-0.9c-0.9,0-1.7,0.3-2.4,0.9
							c-0.6,0.6-0.9,1.3-0.9,2.4C33.5,51,33.8,51.7,34.4,52.3z M54.7,44.6c1.3,0.4,2.5,1.1,3.3,2.1c0.9,0.9,1.3,2.2,1.3,3.6
							c0,2.1-0.7,3.6-2.1,4.8c-1.3,1.2-3.1,1.7-5.1,1.7c-1.6,0-2.9-0.3-4.2-1c-1.3-0.7-2.1-1.7-2.7-3.2l3.3-1.9
							c0.5,1.5,1.7,2.3,3.5,2.3c1,0,1.8-0.2,2.4-0.7c0.6-0.5,0.9-1.1,0.9-2c0-0.8-0.3-1.5-0.9-2c-0.6-0.5-1.3-0.7-2.4-0.7h-0.9
							l-1.5-2.3l4-5.1h-7.8v-3.6h12.5v3.2L54.7,44.6z M69.8,44.2c-0.9,0.9-2.1,1.3-3.4,1.3c-1.3,0-2.5-0.5-3.4-1.3
							c-0.9-0.9-1.3-2.1-1.3-3.3c0-1.3,0.5-2.5,1.3-3.3c0.9-0.9,2.1-1.3,3.4-1.3c1.3,0,2.5,0.5,3.4,1.3c0.9,0.9,1.3,2,1.3,3.3
							C71.1,42.2,70.6,43.3,69.8,44.2z M63.5,53.5l13-14.5l1.7,0.9l-13,14.5L63.5,53.5z M65,42.2c0.3,0.3,0.8,0.5,1.3,0.5
							c0.5,0,0.9-0.2,1.3-0.6c0.3-0.3,0.5-0.8,0.5-1.3s-0.2-0.9-0.5-1.3s-0.8-0.5-1.3-0.5c-0.5,0-0.9,0.2-1.3,0.5
							c-0.3,0.3-0.5,0.8-0.5,1.3C64.6,41.4,64.7,41.8,65,42.2z M79.3,55.5c-0.9,0.9-2.1,1.3-3.4,1.3c-1.3,0-2.5-0.5-3.4-1.3
							c-0.9-0.9-1.3-2.1-1.3-3.3c0-1.3,0.5-2.5,1.3-3.3c0.9-0.9,2.1-1.3,3.4-1.3c1.3,0,2.5,0.5,3.4,1.3c0.9,0.9,1.3,2.1,1.3,3.3
							C80.8,53.4,80.3,54.6,79.3,55.5z M74.7,53.4c0.3,0.3,0.8,0.5,1.3,0.5c0.5,0,0.9-0.2,1.3-0.6c0.3-0.4,0.5-0.8,0.5-1.3
							c0-0.5-0.2-0.9-0.5-1.3c-0.3-0.3-0.8-0.6-1.3-0.6c-0.5,0-0.9,0.2-1.3,0.6c-0.3,0.3-0.5,0.8-0.5,1.3
							C74.2,52.6,74.4,53.1,74.7,53.4z"/>
					</g>
				</g>
			</g>
		</g>
	</g>
</g>
</svg>
