<?xml version="1.0" encoding="utf-8"?>
<!-- Generator: Adobe Illustrator 25.0.0, SVG Export Plug-In . SVG Version: 6.00 Build 0)  -->
<svg version="1.1" id="Layer_1" xmlns="http://www.w3.org/2000/svg" xmlns:xlink="http://www.w3.org/1999/xlink" x="0px" y="0px"
	 viewBox="0 0 109 102" style="enable-background:new 0 0 109 102;" xml:space="preserve">
<style type="text/css">
	.st0{opacity:0.4;fill-rule:evenodd;clip-rule:evenodd;fill:url(#Oval_1_);enable-background:new    ;}
</style>
<desc>Created with Sketch.</desc>
<g id="Design">
	<g id="cpa-97_design" transform="translate(-519.000000, -1316.000000)">
		<g id="_x2705_-art2" transform="translate(160.000000, 1174.000000)">
			<g id="content" transform="translate(0.000000, 102.000000)">
				<g id="_x32_" transform="translate(288.000000, 0.000000)">
					<g id="a2-2" transform="translate(71.000000, 40.000000)">
						
							<linearGradient id="Oval_1_" gradientUnits="userSpaceOnUse" x1="25.3" y1="50.8898" x2="86.5" y2="50.8898" gradientTransform="matrix(1 0 0 -1 0 101.8898)">
							<stop  offset="0" style="stop-color:#9071EC"/>
							<stop  offset="1" style="stop-color:#354DCF"/>
						</linearGradient>
						<circle id="Oval" class="st0" cx="55.9" cy="51" r="30.6"/>
						<path id="людей" d="M45.7,66v4.8h-1.2v-3.6h-1.3v1.6c0,1.5-0.7,2.2-2,2v-1.2c0.3,0.1,0.5,0,0.6-0.1
							c0.1-0.2,0.2-0.4,0.2-0.8V66H45.7z M51.2,65.9c0.7,0,1.3,0.2,1.8,0.7s0.7,1.1,0.7,1.8s-0.2,1.3-0.7,1.8s-1.1,0.7-1.8,0.7
							c-0.6,0-1.1-0.2-1.6-0.5c-0.4-0.4-0.7-0.8-0.9-1.4H48v1.8h-1.2V66H48v1.8h0.7c0.1-0.6,0.4-1,0.9-1.4
							C50.1,66,50.6,65.9,51.2,65.9z M50.2,69.4c0.2,0.2,0.6,0.4,0.9,0.4c0.4,0,0.7-0.1,0.9-0.4c0.2-0.2,0.4-0.6,0.4-1
							s-0.1-0.7-0.4-1c-0.2-0.2-0.6-0.4-0.9-0.4c-0.4,0-0.7,0.1-0.9,0.4c-0.2,0.2-0.4,0.6-0.4,1C49.9,68.8,50,69.1,50.2,69.4z
							 M58.9,69.6h0.6V72h-1.2v-1.3h-3V72h-1.2v-2.4h0.6c0.3-0.4,0.4-1,0.4-1.7V66h3.8C58.9,66,58.9,69.6,58.9,69.6z M56.1,69.6h1.6
							v-2.5h-1.3v0.8C56.4,68.6,56.3,69.2,56.1,69.6z M61.4,68.9c0.2,0.6,0.6,0.9,1.4,0.9c0.5,0,0.8-0.2,1.1-0.5l1,0.6
							c-0.5,0.7-1.2,1-2.1,1c-0.8,0-1.4-0.2-1.9-0.7s-0.7-1.1-0.7-1.8c0-0.7,0.2-1.3,0.7-1.8s1.1-0.7,1.8-0.7s1.3,0.2,1.7,0.7
							c0.5,0.5,0.7,1.1,0.7,1.8c0,0.2,0,0.3,0,0.5H61.4z M61.4,67.9h2.4c-0.1-0.3-0.2-0.6-0.4-0.7C63.2,67,62.9,67,62.6,67
							s-0.6,0.1-0.8,0.3C61.6,67.4,61.4,67.6,61.4,67.9z M66.7,65.4v-1.1h2.8v1.1H66.7z M69.4,66h0.9v4.8h-1.2v-2.7l-2.3,2.7h-0.9
							V66h1.2v2.7L69.4,66z"/>
						<path id="_x32_8_x25_" d="M31.1,57.9V55l6.8-7c1.5-1.6,2.3-2.9,2.3-3.9c0-0.8-0.2-1.4-0.7-1.9c-0.5-0.5-1.1-0.7-1.9-0.7
							c-1.5,0-2.6,0.8-3.3,2.4l-3.2-2c0.6-1.3,1.5-2.4,2.7-3.2c1.2-0.7,2.4-1.1,3.9-1.1c1.8,0,3.3,0.6,4.6,1.7
							c1.3,1.1,1.9,2.7,1.9,4.6c0,2-1.1,4.2-3.2,6.4L37,54.1h7.4v3.8L31.1,57.9L31.1,57.9z M57.9,47.6c1.8,1.1,2.8,2.7,2.8,4.8
							c0,1.8-0.6,3.3-1.9,4.3c-1.3,1-3,1.6-5.2,1.6s-3.9-0.6-5.2-1.6s-1.9-2.5-1.9-4.3c0-2.1,0.9-3.7,2.8-4.8c-1.4-1-2-2.4-2-4.1
							c0-1.8,0.6-3.2,1.9-4.3c1.3-1,2.8-1.5,4.6-1.5c1.8,0,3.4,0.5,4.6,1.5c1.2,1,1.8,2.4,1.8,4.3C60,45.2,59.3,46.6,57.9,47.6z
							 M55.4,42c-0.5-0.4-1.1-0.6-1.8-0.6c-0.8,0-1.3,0.2-1.8,0.6c-0.5,0.4-0.7,0.9-0.7,1.7c0,0.7,0.2,1.3,0.7,1.7s1.1,0.6,1.8,0.6
							c0.8,0,1.3-0.2,1.8-0.6c0.5-0.4,0.7-1,0.7-1.7C56.1,42.9,55.9,42.4,55.4,42z M51.1,53.9c0.6,0.5,1.4,0.7,2.4,0.7
							c0.9,0,1.7-0.2,2.4-0.7s0.9-1.2,0.9-2s-0.3-1.5-0.9-2c-0.6-0.5-1.3-0.7-2.4-0.7s-1.7,0.2-2.4,0.7c-0.6,0.5-0.9,1.2-0.9,2
							C50.3,52.7,50.6,53.4,51.1,53.9z M71.1,45.7c-0.9,0.9-2,1.3-3.4,1.3c-1.3,0-2.5-0.5-3.4-1.3c-0.9-0.9-1.3-2-1.3-3.3
							c0-1.3,0.5-2.4,1.3-3.3c0.9-0.9,2-1.3,3.4-1.3s2.5,0.5,3.4,1.3c0.9,0.9,1.3,2,1.3,3.3C72.4,43.7,71.9,44.8,71.1,45.7z
							 M64.8,54.9l12.9-14.4l1.7,0.9L66.6,55.9L64.8,54.9z M66.3,43.7c0.3,0.3,0.8,0.5,1.3,0.5s0.9-0.2,1.3-0.6
							c0.3-0.3,0.5-0.8,0.5-1.3c0-0.5-0.2-0.9-0.5-1.3c-0.3-0.3-0.8-0.5-1.3-0.5s-0.9,0.2-1.3,0.5s-0.5,0.8-0.5,1.3
							C65.9,42.9,66,43.3,66.3,43.7z M80.6,56.9c-0.9,0.9-2,1.3-3.4,1.3c-1.3,0-2.5-0.5-3.4-1.3c-0.9-0.9-1.3-2-1.3-3.3
							c0-1.3,0.5-2.4,1.3-3.3c0.9-0.9,2-1.3,3.4-1.3s2.5,0.5,3.4,1.3c0.9,0.9,1.3,2,1.3,3.3C82,54.8,81.5,56,80.6,56.9z M76,54.8
							c0.3,0.3,0.8,0.5,1.3,0.5c0.5,0,0.9-0.2,1.3-0.6c0.3-0.4,0.5-0.8,0.5-1.3s-0.2-0.9-0.5-1.3c-0.3-0.3-0.8-0.6-1.3-0.6
							c-0.5,0-0.9,0.2-1.3,0.6c-0.3,0.3-0.5,0.8-0.5,1.3C75.5,54.1,75.6,54.5,76,54.8z"/>
					</g>
				</g>
			</g>
		</g>
	</g>
</g>
</svg>
