<?xml version="1.0" encoding="utf-8"?>
<!-- Generator: Adobe Illustrator 25.0.0, SVG Export Plug-In . SVG Version: 6.00 Build 0)  -->
<svg version="1.1" id="Layer_1" xmlns="http://www.w3.org/2000/svg" xmlns:xlink="http://www.w3.org/1999/xlink" x="0px" y="0px"
	 viewBox="0 0 102 102" style="enable-background:new 0 0 102 102;" xml:space="preserve">
<style type="text/css">
	.st0{opacity:0.4;fill-rule:evenodd;clip-rule:evenodd;fill:url(#Oval_1_);enable-background:new    ;}
</style>
<linearGradient id="Oval_1_" gradientUnits="userSpaceOnUse" x1="20.4" y1="50.8898" x2="81.6" y2="50.8898" gradientTransform="matrix(1 0 0 -1 0 101.8898)">
	<stop  offset="0" style="stop-color:#9071EC"/>
	<stop  offset="1" style="stop-color:#354DCF"/>
</linearGradient>
<circle id="Oval" class="st0" cx="51" cy="51" r="30.6"/>
<desc>Created with Sketch.</desc>
<g id="Design">
	<g id="cpa-97_design" transform="translate(-813.000000, -1316.000000)">
		<g id="_x2705_-art2" transform="translate(160.000000, 1174.000000)">
			<g id="content" transform="translate(0.000000, 102.000000)">
				<g id="_x33_" transform="translate(576.000000, 0.000000)">
					<g id="a2-3" transform="translate(77.000000, 40.000000)">
						<path id="людей" d="M40.8,66v4.8h-1.2v-3.6h-1.3v1.6c0,1.5-0.7,2.2-2,2v-1.2c0.3,0.1,0.5,0,0.6-0.1
							c0.1-0.2,0.2-0.4,0.2-0.8V66H40.8z M46.2,65.9c0.7,0,1.3,0.2,1.8,0.7s0.7,1.1,0.7,1.8s-0.2,1.3-0.7,1.8s-1.1,0.7-1.8,0.7
							c-0.6,0-1.1-0.2-1.6-0.5c-0.4-0.4-0.7-0.8-0.9-1.4H43v1.8h-1.2V66H43v1.8h0.7c0.1-0.6,0.4-1,0.9-1.4
							C45.1,66,45.6,65.9,46.2,65.9z M45.3,69.4c0.2,0.2,0.6,0.4,0.9,0.4c0.4,0,0.7-0.1,0.9-0.4c0.2-0.2,0.4-0.6,0.4-1
							s-0.1-0.7-0.4-1c-0.2-0.2-0.6-0.4-0.9-0.4c-0.4,0-0.7,0.1-0.9,0.4c-0.2,0.2-0.4,0.6-0.4,1C44.9,68.8,45.1,69.1,45.3,69.4z
							 M54,69.6h0.6V72h-1.2v-1.3h-3V72h-1.2v-2.4h0.6c0.3-0.4,0.4-1,0.4-1.7V66H54V69.6z M51.1,69.6h1.6v-2.5h-1.3v0.8
							C51.4,68.6,51.3,69.2,51.1,69.6z M56.4,68.9c0.2,0.6,0.6,0.9,1.4,0.9c0.5,0,0.8-0.2,1.1-0.5l1,0.6c-0.5,0.7-1.2,1-2.1,1
							c-0.8,0-1.4-0.2-1.9-0.7s-0.7-1.1-0.7-1.8c0-0.7,0.2-1.3,0.7-1.8s1.1-0.7,1.8-0.7s1.3,0.2,1.7,0.7c0.5,0.5,0.7,1.1,0.7,1.8
							c0,0.2,0,0.3,0,0.5H56.4z M56.4,67.9h2.4c-0.1-0.3-0.2-0.6-0.4-0.7C58.2,67.1,58,67,57.7,67s-0.6,0.1-0.8,0.3
							C56.6,67.4,56.5,67.6,56.4,67.9z M61.8,65.4v-1.1h2.8v1.1H61.8z M64.4,66h0.9v4.8h-1.2v-2.7l-2.3,2.7H61V66h1.2v2.7L64.4,66z"
							/>
						<path id="_x33__x25_" d="M42.9,42.6c1.7,0.5,3.1,1.4,4.2,2.6c1.1,1.3,1.6,2.8,1.6,4.6c0,2.6-0.9,4.6-2.6,6.1
							c-1.7,1.5-3.9,2.2-6.4,2.2c-2,0-3.7-0.4-5.3-1.3s-2.7-2.2-3.4-4l4.2-2.4c0.6,1.9,2.1,2.9,4.4,2.9c1.3,0,2.3-0.3,3-0.9
							s1.1-1.4,1.1-2.5c0-1-0.4-1.9-1.1-2.5s-1.7-0.9-3-0.9h-1.1l-1.9-2.9l5-6.5h-9.9v-4.6h15.8v4.1L42.9,42.6z M61.9,42.1
							c-1.2,1.1-2.6,1.7-4.3,1.7s-3.2-0.6-4.3-1.7c-1.2-1.2-1.7-2.6-1.7-4.2c0-1.7,0.6-3.1,1.7-4.2c1.2-1.2,2.6-1.7,4.3-1.7
							s3.2,0.6,4.3,1.7c1.2,1.1,1.7,2.5,1.7,4.2C63.6,39.5,63,40.9,61.9,42.1z M54,53.8l16.4-18.3l2.2,1.2L56.2,55L54,53.8z
							 M55.9,39.5c0.4,0.4,1,0.6,1.6,0.6s1.2-0.2,1.6-0.7c0.4-0.4,0.6-1,0.6-1.6s-0.2-1.2-0.6-1.6c-0.4-0.4-1-0.6-1.6-0.6
							s-1.2,0.2-1.6,0.6c-0.4,0.4-0.6,1-0.6,1.6C55.3,38.5,55.5,39,55.9,39.5z M74,56.3c-1.2,1.2-2.6,1.7-4.3,1.7
							c-1.7,0-3.2-0.6-4.3-1.7c-1.2-1.2-1.7-2.6-1.7-4.2c0-1.7,0.6-3.1,1.7-4.2c1.2-1.2,2.6-1.7,4.3-1.7s3.2,0.6,4.3,1.7
							c1.2,1.2,1.7,2.6,1.7,4.2C75.8,53.7,75.2,55.2,74,56.3z M68.1,53.7c0.4,0.4,1,0.6,1.6,0.6s1.2-0.2,1.6-0.7s0.6-1,0.6-1.6
							s-0.2-1.2-0.6-1.6c-0.4-0.4-1-0.7-1.6-0.7s-1.2,0.2-1.6,0.7c-0.4,0.4-0.6,1-0.6,1.6C67.5,52.7,67.7,53.3,68.1,53.7z"/>
					</g>
				</g>
			</g>
		</g>
	</g>
</g>
</svg>
