<?xml version="1.0" encoding="utf-8"?>
<!-- Generator: Adobe Illustrator 25.0.0, SVG Export Plug-In . SVG Version: 6.00 Build 0)  -->
<svg version="1.1" id="Layer_1" xmlns="http://www.w3.org/2000/svg" xmlns:xlink="http://www.w3.org/1999/xlink" x="0px" y="0px"
	 viewBox="0 0 102 102" style="enable-background:new 0 0 102 102;" xml:space="preserve">
<style type="text/css">
	.st0{opacity:0.4;fill-rule:evenodd;clip-rule:evenodd;fill:url(#Oval_1_);enable-background:new    ;}
</style>
<linearGradient id="Oval_1_" gradientUnits="userSpaceOnUse" x1="20.4" y1="50.8898" x2="81.6" y2="50.8898" gradientTransform="matrix(1 0 0 -1 0 101.8898)">
	<stop  offset="0" style="stop-color:#9071EC"/>
	<stop  offset="1" style="stop-color:#354DCF"/>
</linearGradient>
<circle id="Oval" class="st0" cx="51" cy="51" r="30.6"/>
<desc>Created with Sketch.</desc>
<g id="content" transform="translate(0.000000, 102.000000)">
	<g id="_x34_" transform="translate(864.000000, 0.000000)">
		<g id="a2-4" transform="translate(77.000000, 40.000000)">
			<path id="людей" d="M-900.2-76v4.8h-1.2v-3.6h-1.3v1.6c0,1.5-0.7,2.2-2,2v-1.2c0.3,0.1,0.5,0,0.6-0.1
				c0.1-0.2,0.2-0.4,0.2-0.8V-76H-900.2z M-894.8-76.1c0.7,0,1.3,0.2,1.8,0.7s0.7,1.1,0.7,1.8s-0.2,1.3-0.7,1.8s-1.1,0.7-1.8,0.7
				c-0.6,0-1.1-0.2-1.6-0.5c-0.4-0.4-0.7-0.8-0.9-1.4h-0.7v1.8h-1.2V-76h1.2v1.8h0.7c0.1-0.6,0.4-1,0.9-1.4S-895.4-76.1-894.8-76.1z
				 M-895.7-72.6c0.2,0.2,0.6,0.4,0.9,0.4c0.4,0,0.7-0.1,0.9-0.4c0.2-0.2,0.4-0.6,0.4-1s-0.1-0.7-0.4-1c-0.2-0.2-0.6-0.4-0.9-0.4
				c-0.4,0-0.7,0.1-0.9,0.4c-0.2,0.2-0.4,0.6-0.4,1S-895.9-72.9-895.7-72.6z M-887-72.4h0.6v2.4h-1.2v-1.3h-3v1.3h-1.2v-2.4h0.6
				c0.3-0.4,0.4-1,0.4-1.7V-76h3.8V-72.4z M-889.9-72.4h1.6v-2.5h-1.3v0.8C-889.6-73.4-889.7-72.8-889.9-72.4z M-884.6-73.1
				c0.2,0.6,0.6,0.9,1.4,0.9c0.5,0,0.8-0.2,1.1-0.5l1,0.6c-0.5,0.7-1.2,1-2.1,1c-0.8,0-1.4-0.2-1.9-0.7s-0.7-1.1-0.7-1.8
				c0-0.7,0.2-1.3,0.7-1.8s1.1-0.7,1.8-0.7s1.3,0.2,1.7,0.7c0.5,0.5,0.7,1.1,0.7,1.8c0,0.2,0,0.3,0,0.5H-884.6z M-884.6-74.1h2.4
				c-0.1-0.3-0.2-0.6-0.4-0.7c-0.2-0.1-0.4-0.2-0.7-0.2s-0.6,0.1-0.8,0.3C-884.4-74.6-884.5-74.4-884.6-74.1z M-879.2-76.6v-1.1h2.8
				v1.1H-879.2z M-876.6-76h0.9v4.8h-1.2v-2.7l-2.3,2.7h-0.8V-76h1.2v2.7L-876.6-76z"/>
			<path id="_x36__x25_" d="M-904.7-101.4c2.6,0.1,4.7,0.9,6.4,2.5c1.6,1.6,2.4,3.7,2.4,6.2c0,2.6-0.9,4.7-2.6,6.3s-3.9,2.5-6.6,2.5
				c-2.7,0-4.9-0.8-6.6-2.4c-1.7-1.6-2.5-3.7-2.5-6.3c0-1.9,0.5-3.6,1.5-5.1l7.8-11.8h5.7L-904.7-101.4z M-908-89.7
				c0.8,0.7,1.8,1.1,3,1.1s2.2-0.4,3-1.1c0.8-0.7,1.2-1.7,1.2-3c0-1.2-0.4-2.2-1.2-3c-0.8-0.7-1.8-1.1-3-1.1s-2.2,0.4-3,1.1
				s-1.2,1.7-1.2,3C-909.2-91.4-908.8-90.4-908-89.7z M-883-99.9c-1.2,1.1-2.6,1.7-4.3,1.7s-3.2-0.6-4.3-1.7
				c-1.2-1.2-1.7-2.6-1.7-4.2c0-1.7,0.6-3.1,1.7-4.2c1.2-1.2,2.6-1.7,4.3-1.7s3.2,0.6,4.3,1.7c1.2,1.1,1.7,2.5,1.7,4.2
				C-881.3-102.5-881.8-101.1-883-99.9z M-890.8-88.2l16.4-18.3l2.2,1.2L-888.7-87L-890.8-88.2z M-889-102.5c0.4,0.4,1,0.6,1.6,0.6
				c0.6,0,1.2-0.2,1.6-0.7c0.4-0.4,0.6-1,0.6-1.6s-0.2-1.2-0.6-1.6c-0.4-0.4-1-0.6-1.6-0.6c-0.6,0-1.2,0.2-1.6,0.6
				c-0.4,0.4-0.6,1-0.6,1.6C-889.6-103.5-889.4-103-889-102.5z M-870.8-85.7c-1.2,1.2-2.6,1.7-4.3,1.7c-1.7,0-3.2-0.6-4.3-1.7
				c-1.2-1.2-1.7-2.6-1.7-4.2c0-1.7,0.6-3.1,1.7-4.2c1.2-1.2,2.6-1.7,4.3-1.7c1.7,0,3.2,0.6,4.3,1.7c1.2,1.2,1.7,2.6,1.7,4.2
				C-869.1-88.3-869.7-86.8-870.8-85.7z M-876.8-88.3c0.4,0.4,1,0.6,1.6,0.6c0.6,0,1.2-0.2,1.6-0.7c0.4-0.5,0.6-1,0.6-1.6
				s-0.2-1.2-0.6-1.6c-0.4-0.4-1-0.7-1.6-0.7c-0.6,0-1.2,0.2-1.6,0.7c-0.4,0.4-0.6,1-0.6,1.6C-877.4-89.3-877.2-88.7-876.8-88.3z"/>
		</g>
	</g>
</g>
</svg>
