<svg id="Layer_1" data-name="Layer 1" xmlns="http://www.w3.org/2000/svg" xmlns:xlink="http://www.w3.org/1999/xlink" width="207.09" height="96.31" viewBox="0 0 207.09 96.31"><defs><style>.cls-1{fill-rule:evenodd;fill:url(#linear-gradient);}.cls-2{fill:#fff;}</style><linearGradient id="linear-gradient" x1="-437.23" y1="737.8" x2="-437.88" y2="737.6" gradientTransform="matrix(163.02, 0, 0, -75.06, 71435.95, 55425.92)" gradientUnits="userSpaceOnUse"><stop offset="0" stop-color="#9071ec"/><stop offset="1" stop-color="#354dcf"/></linearGradient></defs><g id="Design"><g id="cpa-97_design" data-name="cpa-97 design"><g id="header"><g id="label"><path id="Rectangle" class="cls-1" d="M14.18,13.21l154.93-9.7a4.8,4.8,0,0,1,4.81,3.13l29,78.67A4.79,4.79,0,0,1,200,91.47a4.89,4.89,0,0,1-1.61.3L12.29,93.62a4.8,4.8,0,0,1-4.85-4.75v-.2L9.68,17.85A4.8,4.8,0,0,1,14.18,13.21Z"/><path id="Хитпродаж" class="cls-2" d="M54.56,43.72H51.92l-2.29-3.83-2.28,3.83H44.73l3.59-6L44.91,32h2.62l2.1,3.53L51.73,32h2.63l-3.42,5.71Zm7.26-8.4h1.61v8.4H61.32V39l-4,4.77H55.75v-8.4h2.12v4.77Zm10.22,0V37.4H69.42v6.32H67.25V37.4H64.59V35.32Zm13,0v8.4H82.92V37.35H79.57v6.37H77.4v-8.4ZM92,35.08a3.82,3.82,0,0,1,2.9,1.29,4.73,4.73,0,0,1,0,6.3A3.82,3.82,0,0,1,92,44a3.23,3.23,0,0,1-2.72-1.23v4.36H87.07V35.32h2.17v1A3.23,3.23,0,0,1,92,35.08Zm-2.07,6.16a2.46,2.46,0,0,0,3.34,0,2.33,2.33,0,0,0,.66-1.71,2.31,2.31,0,0,0-.66-1.7,2.42,2.42,0,0,0-3.34,0,2.3,2.3,0,0,0-.65,1.7A2.35,2.35,0,0,0,89.89,41.24Zm14.86,1.44A4.34,4.34,0,0,1,101.59,44a4.39,4.39,0,1,1,3.16-1.28ZM100,41.19a2.37,2.37,0,0,0,3.26,0,2.27,2.27,0,0,0,.66-1.67,2.26,2.26,0,0,0-2.29-2.32,2.17,2.17,0,0,0-1.62.66,2.26,2.26,0,0,0-.65,1.66A2.29,2.29,0,0,0,100,41.19Zm15.18.5h1.11V46h-2.12V43.72h-5.21V46H106.8V41.69h1a5.32,5.32,0,0,0,.72-3V35.32h6.59Zm-5,0H113V37.27h-2.35v1.44A7.61,7.61,0,0,1,110.15,41.69ZM124,35.32h2.17v8.4H124v-1A3.29,3.29,0,0,1,121.27,44a3.8,3.8,0,0,1-2.88-1.29,4.73,4.73,0,0,1,0-6.3,3.8,3.8,0,0,1,2.88-1.29A3.29,3.29,0,0,1,124,36.31Zm-4,5.92a2.46,2.46,0,0,0,3.34,0,2.33,2.33,0,0,0,.66-1.71,2.31,2.31,0,0,0-.66-1.7,2.42,2.42,0,0,0-3.34,0,2.34,2.34,0,0,0-.65,1.7A2.39,2.39,0,0,0,120,41.24Zm19.48,2.48h-2.43L134.49,40v3.76h-2.12V40l-2.57,3.76h-2.42l3-4.25-2.86-4.15H130L132.37,39V35.32h2.12V39l2.4-3.65h2.44l-2.88,4.15Z"/><path id="_2018-2019" data-name="2018-2019" class="cls-2" d="M45.16,73.5V71l5.73-5.91c1.28-1.35,1.93-2.47,1.93-3.36a2.12,2.12,0,0,0-.62-1.59,2.15,2.15,0,0,0-1.57-.6,3,3,0,0,0-2.81,2L45,59.91a5.87,5.87,0,0,1,2.29-2.64,6.11,6.11,0,0,1,3.26-.92,5.78,5.78,0,0,1,3.92,1.43,4.91,4.91,0,0,1,1.63,3.86q0,2.61-2.76,5.38l-3.29,3.29h6.31V73.5Zm19.66.34a5.82,5.82,0,0,1-4.93-2.39,10.32,10.32,0,0,1-1.79-6.36,10.31,10.31,0,0,1,1.79-6.35,6.3,6.3,0,0,1,9.88,0,10.44,10.44,0,0,1,1.78,6.35,10.45,10.45,0,0,1-1.78,6.36A5.84,5.84,0,0,1,64.82,73.84ZM62.28,69.2a2.79,2.79,0,0,0,2.54,1.39,2.84,2.84,0,0,0,2.56-1.41,7.89,7.89,0,0,0,.88-4.09,7.88,7.88,0,0,0-.88-4.1,2.83,2.83,0,0,0-2.56-1.42A2.78,2.78,0,0,0,62.28,61a7.89,7.89,0,0,0-.87,4.1A7.9,7.9,0,0,0,62.28,69.2ZM77.07,56.69H80V73.5H76.64V60.2l-3.17.88-.82-2.83ZM92.2,64.76a4.81,4.81,0,0,1,.7,7.73,7.88,7.88,0,0,1-8.82,0,4.54,4.54,0,0,1-1.61-3.67,4.46,4.46,0,0,1,2.31-4.06A4.08,4.08,0,0,1,83,61.28a4.45,4.45,0,0,1,1.58-3.63,6.49,6.49,0,0,1,7.79,0A4.46,4.46,0,0,1,94,61.28,4,4,0,0,1,92.2,64.76ZM90.06,60a2.6,2.6,0,0,0-3.12,0,1.84,1.84,0,0,0-.6,1.44,1.87,1.87,0,0,0,.6,1.46,2.52,2.52,0,0,0,3.12,0,1.87,1.87,0,0,0,.6-1.46A1.84,1.84,0,0,0,90.06,60ZM86.51,70.11a3.12,3.12,0,0,0,2,.6,3,3,0,0,0,2-.61,2.1,2.1,0,0,0,.76-1.72,2.07,2.07,0,0,0-.76-1.69,3.52,3.52,0,0,0-4,0,2,2,0,0,0-.76,1.69A2.12,2.12,0,0,0,86.51,70.11Zm10.37-2.37v-3h9v3Zm11.21,5.76V71l5.74-5.91q1.92-2,1.92-3.36a2.12,2.12,0,0,0-.61-1.59,2.15,2.15,0,0,0-1.57-.6,3,3,0,0,0-2.81,2L108,59.91a5.91,5.91,0,0,1,2.28-2.64,6.17,6.17,0,0,1,3.27-.92,5.73,5.73,0,0,1,3.91,1.43,4.88,4.88,0,0,1,1.64,3.86q0,2.61-2.76,5.38L113,70.31h6.31V73.5Zm19.67.34a5.85,5.85,0,0,1-4.94-2.39A10.38,10.38,0,0,1,121,65.09a10.37,10.37,0,0,1,1.78-6.35,6.31,6.31,0,0,1,9.89,0,10.44,10.44,0,0,1,1.77,6.35,10.45,10.45,0,0,1-1.77,6.36A5.84,5.84,0,0,1,127.76,73.84Zm-2.55-4.64a3,3,0,0,0,5.11,0,7.9,7.9,0,0,0,.87-4.09,7.89,7.89,0,0,0-.87-4.1,3,3,0,0,0-5.11,0,8,8,0,0,0-.86,4.1A8,8,0,0,0,125.21,69.2Z"/></g><path class="cls-2" d="M143.94,67q2.76-2.76,2.76-5.38a4.85,4.85,0,0,0-1.63-3.85,5.78,5.78,0,0,0-3.92-1.43,6.19,6.19,0,0,0-3.26.91,5.8,5.8,0,0,0-2.28,2.64l2.78,1.64a3,3,0,0,1,2.81-2,2.09,2.09,0,0,1,2.19,2.18c0,.9-.64,2-1.93,3.37L135.73,71v2.48H147v-3.2h-6.31Z"/><path class="cls-2" d="M160.34,58.68a6.3,6.3,0,0,0-9.88,0A10.29,10.29,0,0,0,148.67,65a10.29,10.29,0,0,0,1.79,6.35,6.3,6.3,0,0,0,9.88,0A10.42,10.42,0,0,0,162.12,65,10.42,10.42,0,0,0,160.34,58.68ZM158,69.11a2.82,2.82,0,0,1-2.56,1.42,2.79,2.79,0,0,1-2.54-1.39A8,8,0,0,1,152,65a7.89,7.89,0,0,1,.87-4.1,2.78,2.78,0,0,1,2.54-1.42A2.82,2.82,0,0,1,158,60.93a7.88,7.88,0,0,1,.88,4.1A7.83,7.83,0,0,1,158,69.11Z"/></g></g></g></svg>